<?xml version="1.0" encoding="utf-8"?>
<!-- Generator: Adobe Illustrator 28.1.0, SVG Export Plug-In . SVG Version: 6.00 Build 0)  -->
<svg version="1.1" id="Layer_1" xmlns="http://www.w3.org/2000/svg" xmlns:xlink="http://www.w3.org/1999/xlink" x="0px" y="0px"
	 viewBox="0 0 276 277" style="enable-background:new 0 0 276 277;" xml:space="preserve">
<style type="text/css">
	.st0{fill:none;stroke:#010101;stroke-width:0.12;stroke-linecap:round;stroke-linejoin:round;stroke-miterlimit:10;}
	.st1{clip-path:url(#SVGID_00000114785353257353472880000009893495589541253280_);}
	.st2{fill:#010101;}
	.st3{font-family:'Arial-BoldMT';}
	.st4{font-size:16.44px;}
	.st5{letter-spacing:2;}
	.st6{font-family:'ArialMT';}
	.st7{font-size:8.98px;}
	.st8{font-size:9px;}
	.st9{font-size:5.0227px;}
</style>
<line class="st0" x1="39.7" y1="242.7" x2="39.7" y2="157.5"/>
<line class="st0" x1="39.7" y1="50.7" x2="121.4" y2="50.7"/>
<line class="st0" x1="236.6" y1="50.7" x2="236.7" y2="149.6"/>
<line class="st0" x1="236.6" y1="242.7" x2="134.7" y2="242.7"/>
<line class="st0" x1="236.6" y1="210.8" x2="134.7" y2="210.9"/>
<line class="st0" x1="236.6" y1="178.7" x2="134.7" y2="178.7"/>
<line class="st0" x1="249.8" y1="146.8" x2="27.3" y2="146.9"/>
<line class="st0" x1="236.6" y1="114.6" x2="135.2" y2="114.6"/>
<line class="st0" x1="236.6" y1="82.6" x2="135.2" y2="82.7"/>
<line class="st0" x1="72.7" y1="242.7" x2="72.7" y2="157.5"/>
<line class="st0" x1="105.3" y1="242.7" x2="105.4" y2="157.5"/>
<line class="st0" x1="138.2" y1="252.3" x2="138.2" y2="41"/>
<line class="st0" x1="170.9" y1="242.7" x2="171.1" y2="157.5"/>
<line class="st0" x1="203.9" y1="242.7" x2="203.9" y2="157.5"/>
<line class="st0" x1="135.1" y1="50.7" x2="236.7" y2="50.7"/>
<line class="st0" x1="121.3" y1="82.6" x2="39.8" y2="82.7"/>
<line class="st0" x1="121.3" y1="114.6" x2="39.8" y2="114.6"/>
<line class="st0" x1="116.9" y1="178.7" x2="39.8" y2="178.7"/>
<line class="st0" x1="116.9" y1="210.8" x2="39.8" y2="210.9"/>
<line class="st0" x1="116.9" y1="242.7" x2="39.8" y2="242.7"/>
<line class="st0" x1="203.9" y1="149.6" x2="203.9" y2="50.7"/>
<line class="st0" x1="170.9" y1="149.6" x2="171.1" y2="50.7"/>
<line class="st0" x1="236.6" y1="157.5" x2="236.7" y2="242.7"/>
<line class="st0" x1="39.7" y1="149.6" x2="39.7" y2="50.7"/>
<line class="st0" x1="72.7" y1="149.6" x2="72.7" y2="50.7"/>
<line class="st0" x1="105.3" y1="149.6" x2="105.4" y2="50.7"/>
<g>
	<g>
		<g>
			<defs>
				<rect id="SVGID_1_" x="93.2" y="11.8" width="89.5" height="17.2"/>
			</defs>
			<clipPath id="SVGID_00000015336981796514882860000008768110024396145805_">
				<use xlink:href="#SVGID_1_"  style="overflow:visible;"/>
			</clipPath>
			<g style="clip-path:url(#SVGID_00000015336981796514882860000008768110024396145805_);">
				<text transform="matrix(1 0 0 1 93.1852 25.227)" class="st2 st3 st4">F</text>
				<text transform="matrix(1 0 0 1 103.2652 25.227)" class="st2 st3 st4">i</text>
				<text transform="matrix(1 0 0 1 107.8252 25.227)" class="st2 st3 st4">g</text>
				<text transform="matrix(1 0 0 1 117.8852 25.227)" class="st2 st3 st4">u</text>
				<text transform="matrix(1 0 0 1 127.9652 25.227)" class="st2 st3 st4">r</text>
				<text transform="matrix(1 0 0 1 134.3252 25.227)" class="st2 st3 st4 st5">e</text>
				<text transform="matrix(1 0 0 1 147.9952 25.227)" class="st2 st3 st4">E</text>
				<text transform="matrix(1 0 0 1 158.9252 25.227)" class="st2 st3 st4">5</text>
				<text transform="matrix(1 0 0 1 168.0452 25.227)" class="st2 st3 st4">-</text>
				<text transform="matrix(1 0 0 1 173.5552 25.227)" class="st2 st3 st4">1</text>
			</g>
		</g>
	</g>
</g>
<text transform="matrix(1 0 0 1 172.985 79.3471)" class="st2 st6 st7">Point 3</text>
<text transform="matrix(1 0 0 1 206.465 102.5072)" class="st2 st6 st7">Point 2</text>
<text transform="matrix(1 0 0 1 205.6252 146.4272)" class="st2 st6 st7">Point 6</text>
<text transform="matrix(1 0 0 1 174.5451 139.3471)" class="st2 st6 st7">Point 8</text>
<text transform="matrix(1 0 0 1 40.7448 197.787)" class="st2 st6 st7">Point 5</text>
<text transform="matrix(1 0 0 1 75.0651 221.4272)" class="st2 st6 st7">Point 7</text>
<text transform="matrix(1 0 0 1 173.3449 220.9472)" class="st2 st6 st7">Point 1</text>
<text transform="matrix(1 0 0 1 207.3048 198.1469)" class="st2 st6 st7">Point 4</text>
<text transform="matrix(1 0 0 1 132.5517 38.1772)" class="st6 st8">+Y</text>
<text transform="matrix(1 0 0 1 133.2725 262.797)" class="st6 st8">-Y</text>
<text transform="matrix(1 0 0 1 14.6833 149.5598)" class="st6 st8">-X</text>
<text transform="matrix(1 0 0 1 255.0032 149.7559)" class="st6 st8">+X</text>
<text transform="matrix(1 0 0 1 125.05 52.36)" class="st6 st9">600</text>
<text transform="matrix(1 0 0 1 232.5599 155.276)" class="st6 st9">600</text>
<text transform="matrix(1 0 0 1 125.05 68.296)" class="st6 st9">500</text>
<text transform="matrix(1 0 0 1 216.1598 155.2759)" class="st6 st9">500</text>
<text transform="matrix(1 0 0 1 125.0499 84.2321)" class="st6 st9">400</text>
<text transform="matrix(1 0 0 1 199.7599 155.276)" class="st6 st9">400</text>
<text transform="matrix(1 0 0 1 125.0499 100.1678)" class="st6 st9">300</text>
<text transform="matrix(1 0 0 1 183.3596 155.2758)" class="st6 st9">300</text>
<text transform="matrix(1 0 0 1 125.0499 116.1042)" class="st6 st9">200</text>
<text transform="matrix(1 0 0 1 166.9599 155.2753)" class="st6 st9">200</text>
<text transform="matrix(1 0 0 1 125.0497 132.0402)" class="st6 st9">100</text>
<text transform="matrix(1 0 0 1 150.5596 155.2759)" class="st6 st9">100</text>
<text transform="matrix(1 0 0 1 116.2435 155.2761)" class="st6 st9">-100</text>
<text transform="matrix(1 0 0 1 99.8433 155.276)" class="st6 st9">-200</text>
<text transform="matrix(1 0 0 1 83.4435 155.2761)" class="st6 st9">-300</text>
<text transform="matrix(1 0 0 1 67.0432 155.2759)" class="st6 st9">-400</text>
<text transform="matrix(1 0 0 1 50.6435 155.2764)" class="st6 st9">-500</text>
<text transform="matrix(1 0 0 1 34.2432 155.276)" class="st6 st9">-600</text>
<text transform="matrix(1 0 0 1 123.3775 164.5594)" class="st6 st9">-100</text>
<text transform="matrix(1 0 0 1 123.3775 180.4954)" class="st6 st9">-200</text>
<text transform="matrix(1 0 0 1 123.3774 196.4315)" class="st6 st9">-300</text>
<text transform="matrix(1 0 0 1 123.3774 212.3672)" class="st6 st9">-400</text>
<text transform="matrix(1 0 0 1 123.3774 228.3037)" class="st6 st9">-500</text>
<text transform="matrix(1 0 0 1 123.3773 244.2397)" class="st6 st9">-600</text>
<circle cx="72.7" cy="194.6" r="1.4"/>
<circle cx="89.3" cy="210.8" r="1.4"/>
<circle cx="203.8" cy="194.7" r="1.4"/>
<circle cx="187.3" cy="210.8" r="1.4"/>
<circle cx="187.3" cy="141.8" r="1.4"/>
<circle cx="203.9" cy="148.5" r="1.4"/>
<circle cx="187.3" cy="82.7" r="1.4"/>
<circle cx="203.8" cy="98.8" r="1.4"/>
</svg>
