<?xml version="1.0" encoding="utf-8"?>
<!-- Generator: Adobe Illustrator 24.0.0, SVG Export Plug-In . SVG Version: 6.00 Build 0)  -->
<svg version="1.1" id="Layer_1" xmlns="http://www.w3.org/2000/svg" xmlns:xlink="http://www.w3.org/1999/xlink" x="0px" y="0px"
	 viewBox="0 0 288 207" style="enable-background:new 0 0 288 207;" xml:space="preserve">
<style type="text/css">
	.st0{fill:none;stroke:#010101;stroke-width:0.6;stroke-linecap:round;stroke-linejoin:round;stroke-miterlimit:10;}
	.st1{font-family:'Arial-BoldMT';}
	.st2{font-size:12.35px;}
	.st3{fill:none;stroke:#000000;stroke-width:2;stroke-linecap:round;stroke-linejoin:round;stroke-miterlimit:10;}
	.st4{font-size:10px;}
</style>
<polyline class="st0" points="143.34,142.91 143.46,148.55 121.62,148.55 "/>
<polyline class="st0" points="143.34,154.07 143.46,159.71 121.62,159.71 "/>
<line class="st0" x1="146.46" y1="138.34" x2="146.46" y2="165.34"/>
<line class="st0" x1="146.46" y1="160.79" x2="170.22" y2="160.79"/>
<line class="st0" x1="146.46" y1="143.99" x2="170.22" y2="143.99"/>
<polyline class="st0" points="146.46,151.79 154.74,151.79 154.74,160.79 "/>
<polyline class="st0" points="154.74,159.71 154.38,159.83 154.02,160.07 153.78,160.43 153.78,160.91 153.9,161.39 154.14,161.63 
	154.5,161.99 154.98,161.99 155.34,161.63 155.7,161.27 155.7,160.91 155.7,160.43 155.46,160.07 155.22,159.83 154.74,159.83 "/>
<polyline class="st0" points="154.74,160.07 154.38,160.19 154.14,160.43 154.14,160.79 154.14,161.15 154.38,161.39 154.74,161.51 
	155.1,161.39 155.34,161.15 155.46,160.79 155.34,160.43 155.1,160.19 154.74,160.07 "/>
<polyline class="st0" points="154.74,160.43 154.5,160.55 154.38,160.79 154.5,161.03 154.74,161.15 154.98,161.03 155.1,160.79 
	154.98,160.55 154.74,160.43 "/>
<polyline class="st0" points="149.22,149.63 152.34,151.79 149.34,154.07 149.34,149.63 "/>
<polyline class="st0" points="149.58,153.34 151.74,151.79 149.58,150.34 149.58,153.47 "/>
<polyline class="st0" points="150.18,151.91 150.18,151.55 150.66,151.91 150.18,152.03 "/>
<polyline class="st0" points="149.82,152.63 151.14,151.79 149.82,150.95 149.82,152.75 "/>
<polyline class="st0" points="148.86,154.67 148.98,149.03 153.06,151.91 148.98,154.67 "/>
<polyline class="st0" points="148.5,155.39 153.54,151.91 148.62,148.19 148.62,155.39 "/>
<polyline class="st0" points="54.54,152.63 54.66,150.95 53.34,151.79 54.66,152.75 "/>
<polyline class="st0" points="54.18,151.91 53.94,151.91 54.3,151.55 54.3,152.03 "/>
<polyline class="st0" points="54.9,153.34 54.9,150.34 52.74,151.79 54.9,153.47 "/>
<polyline class="st0" points="55.14,149.63 55.14,154.07 52.26,151.79 55.14,149.63 "/>
<polyline class="st0" points="57.66,160.43 57.42,160.55 57.3,160.79 57.42,161.03 57.66,161.15 58.02,161.03 58.02,160.79 
	58.02,160.55 57.66,160.43 "/>
<polyline class="st0" points="57.66,160.07 57.3,160.19 57.06,160.43 57.06,160.79 57.06,161.15 57.3,161.39 57.66,161.51 
	58.02,161.39 58.26,161.15 58.26,160.79 58.26,160.43 58.02,160.19 57.66,160.07 "/>
<polyline class="st0" points="57.66,159.71 57.3,159.83 56.94,160.07 56.7,160.43 56.7,160.91 56.82,161.39 57.06,161.63 
	57.54,161.99 57.9,161.99 58.26,161.63 58.5,161.27 58.74,160.91 58.5,160.43 58.5,160.07 58.14,159.83 57.66,159.83 "/>
<polyline class="st0" points="57.66,160.79 57.66,151.79 49.38,151.79 "/>
<line class="st0" x1="49.38" y1="143.99" x2="73.14" y2="143.99"/>
<line class="st0" x1="49.38" y1="160.79" x2="73.14" y2="160.79"/>
<line class="st0" x1="49.38" y1="138.34" x2="49.38" y2="165.34"/>
<polyline class="st0" points="24.54,159.71 46.26,159.71 46.26,154.07 "/>
<polyline class="st0" points="24.54,148.55 46.26,148.55 46.26,142.91 "/>
<polyline class="st0" points="55.62,154.67 55.62,149.03 51.54,151.91 55.62,154.67 "/>
<polyline class="st0" points="55.86,155.39 50.94,151.91 55.86,148.19 55.86,155.39 "/>
<polyline class="st0" points="240.54,47.51 240.54,63.23 218.82,63.23 "/>
<line class="st0" x1="243.54" y1="41.87" x2="243.54" y2="68.87"/>
<line class="st0" x1="243.54" y1="64.31" x2="267.3" y2="64.31"/>
<line class="st0" x1="243.54" y1="47.51" x2="267.3" y2="47.51"/>
<polyline class="st0" points="243.54,55.31 251.82,55.31 251.82,64.31 "/>
<polyline class="st0" points="251.82,63.23 251.46,63.34 251.1,63.71 250.86,63.95 250.86,64.43 250.98,64.91 251.22,65.15 
	251.58,65.51 252.06,65.51 252.42,65.15 252.66,64.79 252.9,64.43 252.66,63.95 252.54,63.71 252.18,63.34 251.82,63.34 "/>
<polyline class="st0" points="251.82,63.59 251.46,63.71 251.22,63.95 251.1,64.31 251.22,64.67 251.46,64.91 251.82,65.15 
	252.18,64.91 252.42,64.67 252.54,64.31 252.42,63.95 252.18,63.71 251.82,63.71 "/>
<polyline class="st0" points="251.82,63.95 251.58,64.07 251.46,64.31 251.58,64.67 251.82,64.67 252.06,64.67 252.18,64.31 
	252.06,64.07 251.82,63.95 "/>
<polyline class="st0" points="246.42,53.15 249.54,55.43 246.42,57.59 246.42,53.15 "/>
<polyline class="st0" points="246.66,56.87 248.94,55.43 246.78,53.87 246.78,56.99 "/>
<polyline class="st0" points="247.38,55.67 247.38,55.31 247.74,55.43 247.38,55.67 "/>
<polyline class="st0" points="247.02,56.27 248.22,55.43 247.14,54.47 247.14,56.39 "/>
<polyline class="st0" points="245.94,58.31 250.14,55.43 246.06,52.55 246.06,58.43 "/>
<polyline class="st0" points="245.58,59.03 245.7,51.71 250.62,55.43 245.7,59.03 "/>
<polyline class="st0" points="151.38,56.27 151.38,54.47 150.06,55.43 151.38,56.39 "/>
<polyline class="st0" points="151.02,55.67 150.78,55.43 151.02,55.31 151.02,55.67 "/>
<polyline class="st0" points="151.74,56.87 151.74,53.87 149.58,55.43 151.74,56.99 "/>
<polyline class="st0" points="152.1,53.15 152.1,57.59 148.98,55.43 152.1,53.15 "/>
<polyline class="st0" points="154.74,63.95 154.5,64.07 154.38,64.31 154.5,64.67 154.74,64.67 154.98,64.67 155.1,64.31 
	154.98,64.07 154.74,63.95 "/>
<polyline class="st0" points="154.74,63.59 154.38,63.71 154.14,63.95 154.14,64.31 154.14,64.67 154.38,64.91 154.74,65.15 
	155.1,64.91 155.34,64.67 155.46,64.31 155.34,63.95 155.1,63.71 154.74,63.71 "/>
<polyline class="st0" points="154.74,63.23 154.38,63.34 154.02,63.71 153.78,63.95 153.78,64.43 153.9,64.91 154.14,65.15 
	154.5,65.51 154.98,65.51 155.34,65.15 155.7,64.79 155.7,64.43 155.7,63.95 155.46,63.71 155.22,63.34 154.74,63.34 "/>
<polyline class="st0" points="154.74,64.31 154.74,55.31 146.46,55.31 "/>
<line class="st0" x1="146.46" y1="47.51" x2="170.22" y2="47.51"/>
<line class="st0" x1="146.46" y1="64.31" x2="170.22" y2="64.31"/>
<line class="st0" x1="146.46" y1="41.87" x2="146.46" y2="68.87"/>
<polyline class="st0" points="121.62,63.23 143.46,63.23 143.46,47.51 "/>
<polyline class="st0" points="148.38,55.43 152.46,58.43 152.46,52.55 148.38,55.43 "/>
<polyline class="st0" points="152.82,59.03 147.78,55.43 152.82,51.71 152.82,59.03 "/>
<line class="st0" x1="243.54" y1="138.34" x2="243.54" y2="165.34"/>
<line class="st0" x1="243.54" y1="160.79" x2="267.3" y2="160.79"/>
<line class="st0" x1="243.54" y1="143.99" x2="267.3" y2="143.99"/>
<line class="st0" x1="243.54" y1="151.91" x2="217.74" y2="151.91"/>
<polyline class="st0" points="233.58,156.71 240.9,151.91 233.58,146.87 233.58,156.83 "/>
<polyline class="st0" points="233.94,155.99 240.3,151.79 233.94,147.59 233.94,156.11 "/>
<polyline class="st0" points="234.3,155.39 239.7,151.79 234.3,148.19 234.3,155.63 "/>
<polyline class="st0" points="234.54,154.79 238.98,151.79 234.66,148.79 234.66,154.91 "/>
<polyline class="st0" points="234.78,154.19 238.38,151.91 234.9,149.51 234.9,154.19 "/>
<polyline class="st0" points="235.26,153.47 237.78,151.79 235.26,150.11 235.26,153.47 "/>
<polyline class="st0" points="235.5,152.75 237.18,151.79 235.5,150.83 235.5,152.99 "/>
<polyline class="st0" points="235.86,152.15 236.58,151.79 235.86,151.43 235.86,152.27 "/>
<line class="st0" x1="49.38" y1="41.87" x2="49.38" y2="68.87"/>
<line class="st0" x1="49.38" y1="64.31" x2="73.14" y2="64.31"/>
<line class="st0" x1="49.38" y1="46.43" x2="73.14" y2="46.43"/>
<line class="st0" x1="49.38" y1="55.43" x2="24.54" y2="55.43"/>
<polyline class="st0" points="44.82,60.34 37.62,55.43 44.82,50.51 44.82,60.34 "/>
<polyline class="st0" points="44.58,59.63 38.22,55.43 44.58,51.11 44.58,59.75 "/>
<polyline class="st0" points="44.22,59.03 38.82,55.43 44.34,51.71 44.34,59.15 "/>
<polyline class="st0" points="43.86,58.43 39.54,55.43 43.98,52.43 43.98,58.55 "/>
<polyline class="st0" points="43.5,57.71 40.02,55.43 43.62,53.03 43.62,57.83 "/>
<polyline class="st0" points="43.26,56.99 40.74,55.43 43.26,53.75 43.26,57.11 "/>
<polyline class="st0" points="42.9,56.39 41.46,55.43 42.9,54.34 42.9,56.51 "/>
<polyline class="st0" points="42.54,55.79 41.94,55.43 42.54,55.07 42.54,55.91 "/>
<text transform="matrix(1 0 0 1 112.9798 24.7025)" class="st1 st2">Figure E6-1</text>
<circle class="st3" cx="49.04" cy="55.61" r="17.34"/>
<circle class="st3" cx="146.28" cy="55.61" r="17.34"/>
<circle class="st3" cx="243.42" cy="55.61" r="17.34"/>
<circle class="st3" cx="49.04" cy="152.03" r="17.34"/>
<circle class="st3" cx="146.28" cy="152.03" r="17.34"/>
<circle class="st3" cx="243.42" cy="152.03" r="17.34"/>
<text transform="matrix(1 0 0 1 143.46 96.3039)" class="st1 st4">2</text>
<text transform="matrix(1 0 0 1 240.9 96.3039)" class="st1 st4">3</text>
<text transform="matrix(1 0 0 1 46.26 96.3037)" class="st1 st4">1</text>
<text transform="matrix(1 0 0 1 15.0017 58.331)" class="st1 st4">G</text>
<text transform="matrix(1 0 0 1 143.46 192.2827)" class="st1 st4">5</text>
<text transform="matrix(1 0 0 1 240.9 192.2827)" class="st1 st4">6</text>
<text transform="matrix(1 0 0 1 46.26 192.2825)" class="st1 st4">4</text>
<text transform="matrix(1 0 0 1 75.6133 49.1501)" class="st1 st4">D</text>
<text transform="matrix(1 0 0 1 75.613 67.2341)" class="st1 st4">S</text>
<text transform="matrix(1 0 0 1 111.0819 66.4791)" class="st1 st4">G</text>
<text transform="matrix(1 0 0 1 107.268 151.148)" class="st1 st4">G2</text>
<text transform="matrix(1 0 0 1 107.2679 162.532)" class="st1 st4">G1</text>
<text transform="matrix(1 0 0 1 171.6936 51.2982)" class="st1 st4">D</text>
<text transform="matrix(1 0 0 1 171.6933 66.3822)" class="st1 st4">S</text>
<text transform="matrix(1 0 0 1 209.345 66.6204)" class="st1 st4">G</text>
<text transform="matrix(1 0 0 1 268.9567 51.4396)" class="st1 st4">D</text>
<text transform="matrix(1 0 0 1 268.9564 66.5235)" class="st1 st4">S</text>
<text transform="matrix(1 0 0 1 208.725 155.7804)" class="st1 st4">G</text>
<text transform="matrix(1 0 0 1 268.3367 147.5995)" class="st1 st4">D</text>
<text transform="matrix(1 0 0 1 268.3364 163.6835)" class="st1 st4">S</text>
<text transform="matrix(1 0 0 1 171.6934 147.368)" class="st1 st4">D</text>
<text transform="matrix(1 0 0 1 171.6931 163.452)" class="st1 st4">S</text>
<text transform="matrix(1 0 0 1 10.2002 151.338)" class="st1 st4">G2</text>
<text transform="matrix(1 0 0 1 10.2001 162.722)" class="st1 st4">G1</text>
<text transform="matrix(1 0 0 1 75.1441 148.2479)" class="st1 st4">D</text>
<text transform="matrix(1 0 0 1 75.1438 164.3319)" class="st1 st4">S</text>
</svg>
