<?xml version="1.0" encoding="utf-8"?>
<!-- Generator: Adobe Illustrator 24.0.0, SVG Export Plug-In . SVG Version: 6.00 Build 0)  -->
<svg version="1.1" xmlns="http://www.w3.org/2000/svg" xmlns:xlink="http://www.w3.org/1999/xlink" x="0px" y="0px"
	 viewBox="0 0 252 175" style="enable-background:new 0 0 252 175;" xml:space="preserve">
<style type="text/css">
	.st0{fill:none;stroke:#010101;stroke-width:0.36;stroke-linecap:round;stroke-linejoin:round;stroke-miterlimit:10;}
	.st1{clip-path:url(#SVGID_2_);}
	
		.st2{clip-path:url(#SVGID_4_);fill:none;stroke:#010101;stroke-width:0.36;stroke-linecap:round;stroke-linejoin:round;stroke-miterlimit:10;}
	.st3{clip-path:url(#SVGID_6_);}
	
		.st4{clip-path:url(#SVGID_8_);fill:none;stroke:#010101;stroke-width:0.36;stroke-linecap:round;stroke-linejoin:round;stroke-miterlimit:10;}
	.st5{clip-path:url(#SVGID_10_);}
	
		.st6{clip-path:url(#SVGID_12_);fill:none;stroke:#010101;stroke-width:0.36;stroke-linecap:round;stroke-linejoin:round;stroke-miterlimit:10;}
	.st7{clip-path:url(#SVGID_14_);}
	
		.st8{clip-path:url(#SVGID_16_);fill:none;stroke:#010101;stroke-width:0.36;stroke-linecap:round;stroke-linejoin:round;stroke-miterlimit:10;}
	.st9{clip-path:url(#SVGID_18_);}
	
		.st10{clip-path:url(#SVGID_20_);fill:none;stroke:#010101;stroke-width:0.36;stroke-linecap:round;stroke-linejoin:round;stroke-miterlimit:10;}
	.st11{clip-path:url(#SVGID_22_);}
	
		.st12{clip-path:url(#SVGID_24_);fill:none;stroke:#010101;stroke-width:0.36;stroke-linecap:round;stroke-linejoin:round;stroke-miterlimit:10;}
	.st13{font-family:'Arial-BoldMT';}
	.st14{font-size:15.78px;}
	.st15{letter-spacing:63;}
	.st16{fill:none;stroke:#010101;stroke-width:1.2;stroke-linecap:round;stroke-linejoin:round;stroke-miterlimit:10;}
	.st17{fill:none;stroke:#010101;stroke-width:1.5;stroke-linejoin:round;stroke-miterlimit:10;}
	.st18{fill:none;stroke:#000000;stroke-width:2.2773;stroke-linecap:round;stroke-linejoin:round;stroke-miterlimit:10;}
</style>
<g id="Layer_1">
	<polyline class="st0" points="140.97,138.99 153.45,130.47 140.97,122.19 140.97,139.11 	"/>
	<polyline class="st0" points="141.21,138.27 152.61,130.47 141.33,122.91 141.33,138.27 	"/>
	<polyline class="st0" points="141.69,137.31 151.89,130.47 141.69,123.87 141.69,137.55 	"/>
	<polyline class="st0" points="142.17,136.71 151.05,130.47 142.17,124.58 142.17,136.71 	"/>
	<polyline class="st0" points="142.53,135.75 150.33,130.47 142.53,125.43 142.53,135.75 	"/>
	<polyline class="st0" points="142.89,135.03 149.49,130.47 142.89,126.15 142.89,135.03 	"/>
	<polyline class="st0" points="143.25,134.19 148.77,130.47 143.25,126.99 143.25,134.19 	"/>
	<polyline class="st0" points="143.73,133.35 147.93,130.47 143.73,127.83 143.73,133.47 	"/>
	<polyline class="st0" points="143.97,132.63 147.21,130.47 143.97,128.55 143.97,132.63 	"/>
	<polyline class="st0" points="144.45,131.67 146.37,130.47 144.45,129.27 144.45,131.91 	"/>
	<polyline class="st0" points="144.93,131.07 145.65,130.47 145.05,130.23 145.05,131.07 	"/>
	<polygon points="19.17,47.79 34.17,56.19 19.17,64.58 	"/>
	<polygon class="st0" points="19.17,47.79 34.17,56.19 19.17,64.58 	"/>
	<polygon points="73.53,47.55 86.13,56.19 73.65,64.83 	"/>
	<polygon class="st0" points="73.53,47.55 86.13,56.19 73.65,64.83 	"/>
	<polygon points="86.01,56.19 98.49,47.55 98.49,64.83 	"/>
	<polygon class="st0" points="86.01,56.19 98.49,47.55 98.49,64.83 	"/>
	<polygon points="213.21,116.55 223.53,123.63 213.21,130.47 	"/>
	<polygon class="st0" points="213.21,116.55 223.53,123.63 213.21,130.47 	"/>
	<polygon points="213.21,137.55 223.53,130.47 223.53,144.63 	"/>
	<polygon class="st0" points="213.21,137.55 223.53,130.47 223.53,144.63 	"/>
	<polygon points="18.69,138.99 18.81,122.31 33.69,130.83 	"/>
	<polygon class="st0" points="18.69,138.99 18.81,122.31 33.69,130.83 	"/>
	<polygon points="44.01,110.67 51.45,107.31 46.17,113.91 	"/>
	<polygon class="st0" points="44.01,110.67 51.45,107.31 46.17,113.91 	"/>
	<polygon points="46.89,115.58 54.45,112.35 49.17,119.07 	"/>
	<polygon class="st0" points="46.89,115.58 54.45,112.35 49.17,119.07 	"/>
	<polygon points="78.33,122.43 93.21,130.83 78.33,139.11 	"/>
	<polygon class="st0" points="78.33,122.43 93.21,130.83 78.33,139.11 	"/>
	<polygon points="143.25,47.55 158.25,56.07 143.25,64.47 	"/>
	<polygon class="st0" points="143.25,47.55 158.25,56.07 143.25,64.47 	"/>
	<polygon points="211.53,47.55 226.53,56.07 211.53,64.47 	"/>
	<polygon class="st0" points="211.53,47.55 226.53,56.07 211.53,64.47 	"/>
	<polygon points="140.97,122.07 153.45,130.47 140.97,139.11 	"/>
	<polygon class="st0" points="140.97,122.07 153.45,130.47 140.97,139.11 	"/>
	<polyline class="st0" points="213.21,116.55 223.53,123.63 213.21,130.47 213.21,116.55 	"/>
	<polyline class="st0" points="220.89,139.11 218.37,137.55 220.89,135.75 220.89,139.35 	"/>
	<polyline class="st0" points="223.53,144.39 213.21,137.55 223.53,130.47 223.53,144.63 	"/>
	<polyline class="st0" points="19.17,64.47 19.17,47.79 34.17,56.19 19.17,64.58 	"/>
	<polyline class="st0" points="98.49,47.55 98.49,64.83 86.13,56.19 98.49,47.55 	"/>
	<polyline class="st0" points="73.53,47.55 86.13,56.19 73.65,64.83 73.65,47.55 	"/>
	<polyline class="st0" points="143.25,64.35 143.25,47.55 158.25,56.07 143.25,64.47 	"/>
	<polyline class="st0" points="78.33,138.99 78.33,122.43 93.21,130.83 78.33,139.11 	"/>
	<polyline class="st0" points="18.69,138.99 18.81,122.43 33.69,130.83 18.81,139.11 	"/>
	<polyline class="st0" points="46.89,115.58 49.17,119.07 54.45,112.35 47.13,115.58 	"/>
	<polyline class="st0" points="49.17,116.43 49.29,116.31 49.29,116.43 	"/>
	<polyline class="st0" points="46.17,111.27 46.29,111.51 46.29,111.27 46.17,111.27 	"/>
	<polyline class="st0" points="44.01,110.67 46.17,113.91 51.45,107.31 44.01,110.67 	"/>
	<polygon points="213.21,131.07 213.21,129.99 192.57,131.19 	"/>
	<polygon class="st0" points="213.21,131.07 213.21,129.99 192.57,131.19 	"/>
	<polygon points="213.21,129.99 192.57,131.19 192.57,129.99 	"/>
	<polygon class="st0" points="213.21,129.99 192.57,131.19 192.57,129.99 	"/>
	<polygon points="212.61,144.39 213.81,144.63 212.73,130.47 	"/>
	<polygon class="st0" points="212.61,144.39 213.81,144.63 212.73,130.47 	"/>
	<polygon points="213.69,144.39 212.73,130.47 213.81,130.47 	"/>
	<polygon class="st0" points="213.69,144.39 212.73,130.47 213.81,130.47 	"/>
	<polygon points="222.93,130.47 224.13,130.47 223.05,116.55 	"/>
	<polygon class="st0" points="222.93,130.47 224.13,130.47 223.05,116.55 	"/>
	<polygon points="224.13,130.47 223.05,116.55 224.13,116.55 	"/>
	<polygon class="st0" points="224.13,130.47 223.05,116.55 224.13,116.55 	"/>
	<g>
		<g>
			<defs>
				<rect id="SVGID_1_" x="223.17" y="129.63" width="21.12" height="2.04"/>
			</defs>
			<clipPath id="SVGID_2_">
				<use xlink:href="#SVGID_1_"  style="overflow:visible;"/>
			</clipPath>
			<polygon class="st1" points="223.53,129.99 223.53,131.19 244.05,129.99 			"/>
		</g>
		<g>
			<defs>
				<rect id="SVGID_3_" x="223.17" y="129.63" width="21.12" height="2.04"/>
			</defs>
			<clipPath id="SVGID_4_">
				<use xlink:href="#SVGID_3_"  style="overflow:visible;"/>
			</clipPath>
			<polygon class="st2" points="223.53,129.99 223.53,131.19 244.05,129.99 			"/>
		</g>
	</g>
	<g>
		<g>
			<defs>
				<rect id="SVGID_5_" x="223.17" y="129.63" width="21.12" height="2.04"/>
			</defs>
			<clipPath id="SVGID_6_">
				<use xlink:href="#SVGID_5_"  style="overflow:visible;"/>
			</clipPath>
			<polygon class="st3" points="223.53,131.07 244.05,129.99 244.05,131.19 			"/>
		</g>
		<g>
			<defs>
				<rect id="SVGID_7_" x="223.17" y="129.63" width="21.12" height="2.04"/>
			</defs>
			<clipPath id="SVGID_8_">
				<use xlink:href="#SVGID_7_"  style="overflow:visible;"/>
			</clipPath>
			<polygon class="st4" points="223.53,131.07 244.05,129.99 244.05,131.19 			"/>
		</g>
	</g>
	<polygon points="234.33,56.55 234.45,55.47 202.29,56.55 	"/>
	<polygon class="st0" points="234.33,56.55 234.45,55.47 202.29,56.55 	"/>
	<polygon points="234.33,55.35 202.29,56.67 202.29,55.58 	"/>
	<polygon class="st0" points="234.33,55.35 202.29,56.67 202.29,55.58 	"/>
	<polygon points="133.89,55.35 134.01,56.67 169.77,55.58 	"/>
	<polygon class="st0" points="133.89,55.35 134.01,56.67 169.77,55.58 	"/>
	<polygon points="133.89,56.55 169.77,55.47 169.77,56.55 	"/>
	<polygon class="st0" points="133.89,56.55 169.77,55.47 169.77,56.55 	"/>
	<polygon points="107.13,56.79 107.37,55.71 64.77,56.79 	"/>
	<polygon class="st0" points="107.13,56.79 107.37,55.71 64.77,56.79 	"/>
	<polygon points="107.25,55.58 64.77,56.79 64.77,55.71 	"/>
	<polygon class="st0" points="107.25,55.58 64.77,56.79 64.77,55.71 	"/>
	<g>
		<g>
			<defs>
				<rect id="SVGID_9_" x="8.85" y="55.23" width="42.12" height="2.04"/>
			</defs>
			<clipPath id="SVGID_10_">
				<use xlink:href="#SVGID_9_"  style="overflow:visible;"/>
			</clipPath>
			<polygon class="st5" points="8.85,55.58 8.85,56.79 50.49,55.71 			"/>
		</g>
		<g>
			<defs>
				<rect id="SVGID_11_" x="8.85" y="55.23" width="42.12" height="2.04"/>
			</defs>
			<clipPath id="SVGID_12_">
				<use xlink:href="#SVGID_11_"  style="overflow:visible;"/>
			</clipPath>
			<polygon class="st6" points="8.85,55.58 8.85,56.79 50.49,55.71 			"/>
		</g>
	</g>
	<g>
		<g>
			<defs>
				<rect id="SVGID_13_" x="8.85" y="55.35" width="42.12" height="1.92"/>
			</defs>
			<clipPath id="SVGID_14_">
				<use xlink:href="#SVGID_13_"  style="overflow:visible;"/>
			</clipPath>
			<polygon class="st7" points="8.85,56.79 50.49,55.71 50.49,56.79 			"/>
		</g>
		<g>
			<defs>
				<rect id="SVGID_15_" x="8.85" y="55.35" width="42.12" height="1.92"/>
			</defs>
			<clipPath id="SVGID_16_">
				<use xlink:href="#SVGID_15_"  style="overflow:visible;"/>
			</clipPath>
			<polygon class="st8" points="8.85,56.79 50.49,55.71 50.49,56.79 			"/>
		</g>
	</g>
	<polygon points="34.65,47.79 33.45,47.79 34.65,64.58 	"/>
	<polygon class="st0" points="34.65,47.79 33.45,47.79 34.65,64.58 	"/>
	<polygon points="33.45,47.79 34.65,64.58 33.45,64.58 	"/>
	<polygon class="st0" points="33.45,47.79 34.65,64.58 33.45,64.58 	"/>
	<path d="M25.77,51.63"/>
	<path d="M23.25,43.23"/>
	<path class="st0" d="M23.25,43.23"/>
	<polygon points="34.17,122.43 33.09,122.43 34.17,139.11 	"/>
	<polygon class="st0" points="34.17,122.43 33.09,122.43 34.17,139.11 	"/>
	<polygon points="33.09,122.43 34.17,139.11 33.09,139.11 	"/>
	<polygon class="st0" points="33.09,122.43 34.17,139.11 33.09,139.11 	"/>
	<polygon points="36.33,118.35 36.93,119.55 44.73,111.87 	"/>
	<polygon class="st0" points="36.33,118.35 36.93,119.55 44.73,111.87 	"/>
	<polygon points="36.81,119.43 44.73,111.87 45.45,112.95 	"/>
	<polygon class="st0" points="36.81,119.43 44.73,111.87 45.45,112.95 	"/>
	<polygon points="39.09,123.51 39.93,124.58 47.73,116.79 	"/>
	<polygon class="st0" points="39.09,123.51 39.93,124.58 47.73,116.79 	"/>
	<polygon points="39.93,124.58 47.61,116.79 48.33,117.87 	"/>
	<polygon class="st0" points="39.93,124.58 47.61,116.79 48.33,117.87 	"/>
	<g>
		<g>
			<defs>
				<rect id="SVGID_17_" x="8.85" y="129.87" width="42.12" height="1.92"/>
			</defs>
			<clipPath id="SVGID_18_">
				<use xlink:href="#SVGID_17_"  style="overflow:visible;"/>
			</clipPath>
			<polygon class="st9" points="50.37,131.31 50.49,130.23 8.85,131.31 			"/>
		</g>
		<g>
			<defs>
				<rect id="SVGID_19_" x="8.85" y="129.87" width="42.12" height="1.92"/>
			</defs>
			<clipPath id="SVGID_20_">
				<use xlink:href="#SVGID_19_"  style="overflow:visible;"/>
			</clipPath>
			<polygon class="st10" points="50.37,131.31 50.49,130.23 8.85,131.31 			"/>
		</g>
	</g>
	<g>
		<g>
			<defs>
				<rect id="SVGID_21_" x="8.85" y="129.63" width="42" height="2.16"/>
			</defs>
			<clipPath id="SVGID_22_">
				<use xlink:href="#SVGID_21_"  style="overflow:visible;"/>
			</clipPath>
			<polygon class="st11" points="50.37,129.99 8.85,131.31 8.85,130.11 			"/>
		</g>
		<g>
			<defs>
				<rect id="SVGID_23_" x="8.85" y="129.63" width="42" height="2.16"/>
			</defs>
			<clipPath id="SVGID_24_">
				<use xlink:href="#SVGID_23_"  style="overflow:visible;"/>
			</clipPath>
			<polygon class="st12" points="50.37,129.99 8.85,131.31 8.85,130.11 			"/>
		</g>
	</g>
	<polygon points="33.69,129.99 33.69,131.31 50.49,130.11 	"/>
	<polygon class="st0" points="33.69,129.99 33.69,131.31 50.49,130.11 	"/>
	<polygon points="33.69,131.31 50.49,130.23 50.49,131.31 	"/>
	<polygon class="st0" points="33.69,131.31 50.49,130.23 50.49,131.31 	"/>
	<polygon points="62.01,129.99 62.01,131.31 112.65,130.11 	"/>
	<polygon class="st0" points="62.01,129.99 62.01,131.31 112.65,130.11 	"/>
	<polygon points="62.01,131.31 112.65,130.23 112.65,131.31 	"/>
	<polygon class="st0" points="62.01,131.31 112.65,130.23 112.65,131.31 	"/>
	<polygon points="153.93,122.07 152.97,122.19 153.93,139.11 	"/>
	<polygon class="st0" points="153.93,122.07 152.97,122.19 153.93,139.11 	"/>
	<polygon points="152.85,122.07 153.93,139.11 152.97,139.11 	"/>
	<polygon class="st0" points="152.85,122.07 153.93,139.11 152.97,139.11 	"/>
	<polygon points="120.69,129.99 120.81,131.19 174.33,129.99 	"/>
	<polygon class="st0" points="120.69,129.99 120.81,131.19 174.33,129.99 	"/>
	<polygon points="120.69,131.19 174.33,129.99 174.33,131.19 	"/>
	<polygon class="st0" points="120.69,131.19 174.33,129.99 174.33,131.19 	"/>
	<polyline class="st0" points="211.53,64.35 226.53,56.07 211.53,47.55 211.53,64.47 	"/>
	<polygon points="227.01,47.55 225.93,47.55 227.01,64.47 	"/>
	<polygon class="st0" points="227.01,47.55 225.93,47.55 227.01,64.47 	"/>
	<polygon points="225.69,47.55 226.89,64.47 225.93,64.47 	"/>
	<polygon class="st0" points="225.69,47.55 226.89,64.47 225.93,64.47 	"/>
	<polygon points="89.61,123.99 90.81,123.99 89.73,118.23 	"/>
	<polygon class="st0" points="89.61,123.99 90.81,123.99 89.73,118.23 	"/>
	<polygon points="90.81,123.99 89.73,118.23 90.81,119.31 	"/>
	<polygon class="st0" points="90.81,123.99 89.73,118.23 90.81,119.31 	"/>
	<polygon points="89.61,117.99 90.81,119.31 93.81,118.23 	"/>
	<polygon class="st0" points="89.61,117.99 90.81,119.31 93.81,118.23 	"/>
	<polygon points="90.81,119.31 93.81,118.23 92.61,119.31 	"/>
	<polygon class="st0" points="90.81,119.31 93.81,118.23 92.61,119.31 	"/>
	<polygon points="93.81,117.99 92.61,119.19 93.81,142.11 	"/>
	<polygon class="st0" points="93.81,117.99 92.61,119.19 93.81,142.11 	"/>
	<polygon points="92.61,119.31 93.81,142.11 92.61,143.31 	"/>
	<polygon class="st0" points="92.61,119.31 93.81,142.11 92.61,143.31 	"/>
	<polygon points="93.81,142.11 92.61,143.31 95.61,142.11 	"/>
	<polygon class="st0" points="93.81,142.11 92.61,143.31 95.61,142.11 	"/>
	<polygon points="92.73,143.31 95.61,142.11 96.81,143.31 	"/>
	<polygon class="st0" points="92.73,143.31 95.61,142.11 96.81,143.31 	"/>
	<polygon points="95.49,142.23 96.81,143.31 95.61,137.55 	"/>
	<polygon class="st0" points="95.49,142.23 96.81,143.31 95.61,137.55 	"/>
	<polygon points="96.81,143.31 95.61,137.55 96.81,137.55 	"/>
	<polygon class="st0" points="96.81,143.31 95.61,137.55 96.81,137.55 	"/>
	<polygon points="82.29,64.11 82.41,65.55 85.53,64.11 	"/>
	<polygon class="st0" points="82.29,64.11 82.41,65.55 85.53,64.11 	"/>
	<polygon points="82.29,65.43 85.53,64.11 86.61,65.55 	"/>
	<polygon class="st0" points="82.29,65.43 85.53,64.11 86.61,65.55 	"/>
	<polygon points="85.41,64.11 86.61,65.55 85.41,48.27 	"/>
	<polygon class="st0" points="85.41,64.11 86.61,65.55 85.41,48.27 	"/>
	<polygon points="86.61,65.43 85.41,48.27 86.61,46.95 	"/>
	<polygon class="st0" points="86.61,65.43 85.41,48.27 86.61,46.95 	"/>
	<polygon points="85.53,48.15 86.61,46.83 82.41,48.27 	"/>
	<polygon class="st0" points="85.53,48.15 86.61,46.83 82.41,48.27 	"/>
	<polygon points="86.61,46.83 82.41,48.27 82.41,46.83 	"/>
	<polygon class="st0" points="86.61,46.83 82.41,48.27 82.41,46.83 	"/>
	<polygon points="162.33,68.19 162.93,67.11 157.65,64.58 	"/>
	<polygon class="st0" points="162.33,68.19 162.93,67.11 157.65,64.58 	"/>
	<polygon points="162.93,67.11 157.65,64.58 158.73,63.99 	"/>
	<polygon class="st0" points="162.93,67.11 157.65,64.58 158.73,63.99 	"/>
	<polygon points="157.53,64.58 158.73,63.99 157.65,47.91 	"/>
	<polygon class="st0" points="157.53,64.58 158.73,63.99 157.65,47.91 	"/>
	<polygon points="158.73,63.99 157.65,48.03 158.73,47.43 	"/>
	<polygon class="st0" points="158.73,63.99 157.65,48.03 158.73,47.43 	"/>
	<polygon points="157.53,47.91 158.73,47.43 153.45,44.79 	"/>
	<polygon class="st0" points="157.53,47.91 158.73,47.43 153.45,44.79 	"/>
	<polygon points="158.73,47.19 153.45,44.79 154.05,43.71 	"/>
	<polygon class="st0" points="158.73,47.19 153.45,44.79 154.05,43.71 	"/>
	<polygon points="153.09,129.99 153.69,131.19 167.73,121.95 	"/>
	<polygon class="st0" points="153.09,129.99 153.69,131.19 167.73,121.95 	"/>
	<polygon points="153.57,130.95 167.73,121.83 168.81,122.55 	"/>
	<polygon class="st0" points="153.57,130.95 167.73,121.83 168.81,122.55 	"/>
	<polygon points="167.61,121.71 168.93,122.55 167.73,108.15 	"/>
	<polygon class="st0" points="167.61,121.71 168.93,122.55 167.73,108.15 	"/>
	<polygon points="168.93,122.55 167.73,108.15 168.93,108.15 	"/>
	<polygon class="st0" points="168.93,122.55 167.73,108.15 168.93,108.15 	"/>
	<polygon points="223.17,123.15 223.89,124.23 235.17,115.23 	"/>
	<polygon class="st0" points="223.17,123.15 223.89,124.23 235.17,115.23 	"/>
	<polygon points="223.65,124.23 235.17,115.23 236.49,115.95 	"/>
	<polygon class="st0" points="223.65,124.23 235.17,115.23 236.49,115.95 	"/>
	<polygon points="235.17,114.99 236.49,115.95 235.17,107.31 	"/>
	<polygon class="st0" points="235.17,114.99 236.49,115.95 235.17,107.31 	"/>
	<polygon points="236.37,115.71 235.17,107.31 236.49,107.31 	"/>
	<polygon class="st0" points="236.37,115.71 235.17,107.31 236.49,107.31 	"/>
	<text transform="matrix(1 0 0 1 81.0895 22.3386)" class="st13 st14">Figure E6-2</text>
	<text transform="matrix(1 0 0 1 81.3201 88.699)" class="st13 st14">2</text>
	<text transform="matrix(1 0 0 1 22.5298 88.699)" class="st13 st14">1</text>
	<text transform="matrix(1 0 0 1 147.3298 88.4587)" class="st13 st14">3</text>
	<text transform="matrix(1 0 0 1 214.0495 88.0984)" class="st13 st14">4</text>
	<text transform="matrix(1 0 0 1 20.4899 164.1785)" class="st13 st14">5</text>
	<text transform="matrix(1 0 0 1 80.9704 164.7791)" class="st13 st14">6</text>
	<text transform="matrix(1 0 0 1 140.9696 165.2582)" class="st13 st14 st15">7</text>
	<text transform="matrix(1 0 0 1 214.1596 165.2582)" class="st13 st14">8</text>
	<path class="st16" d="M13.71,42.67"/>
	<path class="st17" d="M23.78,69.74c1.77-4.02,2.77-8.6,2.77-13.46c0-4.92-1.03-9.56-2.84-13.61"/>
	<path class="st16" d="M21.78,69.74"/>
	<path class="st16" d="M0.65,27.49"/>
</g>
<g id="Layer_2">
	<circle class="st18" cx="148.03" cy="130.31" r="17.43"/>
	<circle class="st18" cx="218.57" cy="130.31" r="17.43"/>
</g>
</svg>
