<?xml version="1.0" encoding="utf-8"?>
<!-- Generator: Adobe Illustrator 24.0.0, SVG Export Plug-In . SVG Version: 6.00 Build 0)  -->
<svg version="1.1" id="Layer_1" xmlns="http://www.w3.org/2000/svg" xmlns:xlink="http://www.w3.org/1999/xlink" x="0px" y="0px"
	 viewBox="0 0 268 183" style="enable-background:new 0 0 268 183;" xml:space="preserve">
<style type="text/css">
	.st0{fill:none;stroke:#010101;stroke-width:0.96;stroke-linecap:round;stroke-linejoin:round;stroke-miterlimit:10;}
	.st1{fill:none;stroke:#010101;stroke-width:0.48;stroke-linecap:round;stroke-linejoin:round;stroke-miterlimit:10;}
	.st2{fill:none;stroke:#010101;stroke-linecap:round;stroke-linejoin:round;stroke-miterlimit:10;}
	.st3{fill:#010101;}
	.st4{font-family:'Arial-BoldMT';}
	.st5{font-size:14.24px;}
	.st6{font-size:10.5px;}
	.st7{letter-spacing:84;}
	.st8{letter-spacing:93;}
</style>
<line class="st0" x1="204.08" y1="63.12" x2="189.8" y2="63.12"/>
<line class="st0" x1="204.08" y1="46.44" x2="189.8" y2="46.44"/>
<line class="st0" x1="239" y1="54.84" x2="256.16" y2="54.84"/>
<line class="st0" x1="216.56" y1="40.44" x2="202.64" y2="40.44"/>
<polyline class="st0" points="202.52,69 203.36,66.36 203.96,63.6 204.44,60.6 204.56,57.72 204.8,54.72 204.56,51.84 204.44,48.96 
	203.96,46.08 203.36,43.19 202.64,40.44 "/>
<line class="st0" x1="202.64" y1="69.24" x2="216.56" y2="69.24"/>
<polyline class="st0" points="203,68.64 203.84,65.64 204.44,62.64 204.92,59.52 205.04,56.4 205.04,53.16 204.92,50.04 
	204.44,46.92 203.84,43.92 203.12,40.8 "/>
<line class="st0" x1="203.12" y1="68.76" x2="216.56" y2="68.76"/>
<polyline class="st0" points="203.36,68.4 204.32,65.4 204.68,62.4 205.28,59.4 205.4,56.28 205.4,53.28 205.28,50.16 204.68,47.16 
	204.32,44.16 203.36,41.28 "/>
<line class="st0" x1="203.6" y1="68.28" x2="216.56" y2="68.52"/>
<polyline class="st0" points="203.96,67.92 204.68,65.16 205.4,62.28 205.52,59.16 205.76,56.28 205.76,53.4 205.52,50.28 
	205.4,47.4 204.68,44.52 203.96,41.76 "/>
<line class="st0" x1="204.08" y1="68.04" x2="216.56" y2="68.04"/>
<polyline class="st0" points="204.44,67.56 205.16,64.44 205.76,61.32 205.88,57.96 206.12,54.84 205.88,51.6 205.76,48.24 
	205.16,45.12 204.44,42 "/>
<line class="st0" x1="204.44" y1="67.56" x2="216.56" y2="67.56"/>
<polyline class="st0" points="216.44,67.56 218.6,67.56 220.76,67.19 222.8,66.84 224.72,66.12 226.64,65.28 228.56,64.19 
	230.36,63.12 232.04,61.68 233.6,60.12 235.04,58.44 236.24,56.76 237.44,54.72 "/>
<polyline class="st0" points="237.44,54.84 236.24,53.04 235.04,51.12 233.6,49.56 232.04,47.88 230.36,46.68 228.68,45.36 
	226.64,44.4 224.72,43.56 222.8,42.84 220.76,42.36 218.6,42.24 216.56,42.12 "/>
<polyline class="st0" points="216.44,67.92 218.72,67.92 220.76,67.68 222.8,67.19 224.96,66.48 226.88,65.64 228.8,64.68 
	230.6,63.48 232.28,62.04 233.96,60.36 235.28,58.68 236.6,56.76 237.68,54.84 "/>
<polyline class="st0" points="237.68,54.84 236.6,52.92 235.16,51.12 233.84,49.44 232.28,47.76 230.48,46.32 228.8,45.12 
	226.88,44.04 224.84,43.19 222.8,42.48 220.76,42.12 218.72,41.76 216.44,41.64 "/>
<polyline class="st0" points="216.56,68.4 218.84,68.28 220.88,68.16 223.04,67.56 225.2,66.96 227.12,66 229.16,64.92 230.96,63.6 
	232.76,62.16 234.2,60.6 235.76,58.68 237.08,56.88 238.28,54.84 "/>
<polyline class="st0" points="238.16,54.72 237.08,52.8 235.76,50.88 234.2,49.08 232.64,47.64 230.96,45.96 229.16,44.88 
	227.12,43.68 225.2,42.84 223.04,42.12 220.88,41.64 218.84,41.4 216.56,41.28 "/>
<polyline class="st0" points="216.44,68.76 218.6,68.76 220.64,68.4 222.68,68.04 224.72,67.44 226.64,66.72 228.56,65.64 
	230.12,64.56 231.92,63.24 233.48,61.8 235.04,60.24 236.36,58.68 237.56,56.76 238.76,54.84 "/>
<polyline class="st0" points="238.64,54.84 237.56,52.92 236.36,51.12 235.04,49.32 233.48,47.76 231.92,46.32 230.12,45.12 
	228.56,43.92 226.64,42.96 224.72,42.12 222.68,41.52 220.64,41.16 218.6,40.92 216.56,40.92 "/>
<polyline class="st0" points="216.44,69.12 218.48,69.12 220.64,68.88 222.68,68.52 224.72,67.8 226.64,67.08 228.56,66 
	230.48,64.92 232.16,63.6 233.84,62.16 235.16,60.36 236.6,58.68 237.92,56.88 239,54.84 "/>
<polyline class="st0" points="238.88,54.84 237.92,52.8 236.6,51 235.16,49.19 233.84,47.64 232.16,46.19 230.48,44.88 
	228.56,43.68 226.64,42.72 224.72,41.76 222.68,41.28 220.76,40.68 218.6,40.56 216.56,40.44 "/>
<line class="st0" x1="216.56" y1="40.92" x2="203.24" y2="40.92"/>
<line class="st0" x1="216.44" y1="41.16" x2="203.48" y2="41.28"/>
<line class="st0" x1="216.44" y1="41.4" x2="204.08" y2="41.64"/>
<line class="st0" x1="216.56" y1="41.88" x2="204.56" y2="42.12"/>
<polyline class="st0" points="112.88,67.56 113,42 132.92,42 "/>
<polyline class="st0" points="132.92,67.56 134.24,67.56 135.8,67.08 137,66.72 138.44,66.24 139.52,65.28 140.6,64.32 
	141.56,63.24 142.4,62.16 143.24,60.72 143.72,59.28 144.08,57.84 144.44,56.28 144.44,54.84 144.44,53.28 144.08,51.72 
	143.72,50.28 143.24,48.84 142.4,47.52 141.56,46.32 140.6,45.24 139.52,44.28 138.44,43.44 137,42.84 135.8,42.36 134.24,42 
	132.92,42 "/>
<line class="st0" x1="112.88" y1="67.56" x2="132.92" y2="67.56"/>
<polyline class="st0" points="112.52,67.92 112.64,41.76 133.04,41.76 "/>
<polyline class="st0" points="133.04,67.92 134.36,67.92 135.92,67.56 137.24,67.08 138.44,66.48 139.64,65.76 140.84,64.68 
	141.8,63.6 142.76,62.28 143.48,60.96 144.08,59.4 144.44,58.08 144.8,56.52 144.8,54.84 144.8,53.28 144.44,51.72 144.08,50.16 
	143.48,48.72 142.76,47.4 141.8,46.08 140.84,45 139.64,43.92 138.44,43.19 137.24,42.48 135.92,42.12 134.36,41.76 133.04,41.76 
	"/>
<line class="st0" x1="112.52" y1="68.04" x2="133.04" y2="68.04"/>
<polyline class="st0" points="112.16,68.4 112.16,41.28 133.04,41.28 "/>
<polyline class="st0" points="133.04,68.4 134.6,68.16 135.92,67.92 137.36,67.44 138.8,66.72 139.88,66 140.96,64.8 142.16,63.72 
	143,62.52 143.72,61.19 144.32,59.52 144.8,57.96 145.04,56.4 145.16,54.84 145.04,53.04 144.8,51.6 144.32,50.04 143.72,48.48 
	143,47.16 142.16,45.84 140.96,44.64 139.88,43.68 138.8,42.84 137.36,42.12 135.92,41.64 134.6,41.28 133.04,41.28 "/>
<line class="st0" x1="112.16" y1="68.28" x2="133.04" y2="68.52"/>
<polyline class="st0" points="111.8,68.76 111.92,40.92 133.04,40.92 "/>
<polyline class="st0" points="132.92,68.64 134.36,68.64 135.92,68.28 137.24,67.92 138.56,67.08 139.88,66.48 140.96,65.4 
	142.16,64.32 142.88,63 143.84,61.68 144.44,60.24 144.92,58.8 145.16,57.12 145.4,55.56 145.4,54 145.16,52.44 144.92,50.76 
	144.44,49.32 143.84,47.88 142.88,46.56 142.16,45.24 140.96,44.04 139.88,43.08 138.56,42.36 137.24,41.64 135.92,41.16 
	134.36,40.92 132.92,40.8 "/>
<line class="st0" x1="111.8" y1="68.76" x2="133.04" y2="68.76"/>
<polyline class="st0" points="111.32,69.12 111.56,40.44 132.92,40.44 "/>
<polyline class="st0" points="133.04,69 134.6,69 136.04,68.76 137.48,68.16 138.8,67.56 140.12,66.72 141.2,65.76 142.28,64.56 
	143.24,63.36 144.2,62.04 144.8,60.36 145.28,58.92 145.64,57.24 145.88,55.56 145.88,54 145.64,52.32 145.28,50.64 144.8,49.08 
	144.2,47.64 143.24,46.32 142.28,45 141.2,43.8 140.12,42.84 138.8,42 137.48,41.16 136.04,40.8 134.6,40.56 133.04,40.44 "/>
<line class="st0" x1="111.32" y1="69.24" x2="132.92" y2="69.24"/>
<line class="st0" x1="111.44" y1="63.12" x2="100.88" y2="63.12"/>
<line class="st0" x1="111.44" y1="46.44" x2="100.88" y2="46.44"/>
<polyline class="st0" points="147.92,51.24 147.32,51.36 146.6,51.6 146,52.19 145.4,52.68 145.04,53.28 144.92,54.12 144.8,55.08 
	144.92,55.8 145.28,56.52 145.76,57.12 146.24,57.72 146.96,58.08 147.68,58.44 148.4,58.44 149,58.08 149.84,57.72 150.2,57.12 
	150.8,56.64 151.04,55.8 151.28,55.08 151.16,54.12 150.92,53.28 150.56,52.68 150.08,52.19 149.48,51.6 148.64,51.36 148.04,51.24 
	"/>
<polyline class="st0" points="147.92,51.6 147.32,51.72 146.72,51.96 146,52.44 145.64,53.04 145.28,53.88 145.16,54.48 
	145.28,55.32 145.4,56.16 145.88,56.76 146.36,57.36 146.96,57.72 147.68,57.96 148.4,57.96 149,57.72 149.72,57.36 150.2,56.76 
	150.56,56.16 150.8,55.32 150.92,54.48 150.8,53.88 150.44,53.04 149.96,52.44 149.36,51.96 148.64,51.72 148.04,51.6 "/>
<polyline class="st0" points="147.92,51.96 147.32,52.19 146.72,52.44 146.24,52.8 146,53.52 145.64,54 145.64,54.84 145.64,55.56 
	146,56.28 146.24,56.88 146.84,57.12 147.32,57.48 148.04,57.6 148.76,57.48 149.36,57.12 149.84,56.88 150.2,56.16 150.44,55.56 
	150.56,54.84 150.44,54 150.2,53.52 149.84,52.8 149.36,52.44 148.76,52.19 148.04,51.96 "/>
<polyline class="st0" points="147.92,52.32 147.44,52.44 146.84,52.8 146.36,53.28 146,53.88 145.88,54.48 145.88,55.19 146,55.8 
	146.36,56.4 146.84,56.76 147.44,57.12 148.04,57.12 148.64,57.12 149.24,56.76 149.6,56.4 149.96,55.8 150.2,55.19 150.2,54.48 
	149.96,53.88 149.6,53.28 149.24,52.8 148.64,52.44 148.04,52.44 "/>
<polyline class="st0" points="147.92,52.68 147.44,52.68 146.96,53.04 146.48,53.52 146.24,54.12 146.24,54.72 146.24,55.32 
	146.48,56.04 146.96,56.4 147.44,56.76 148.04,56.76 148.52,56.76 149,56.4 149.48,56.04 149.84,55.32 149.84,54.72 149.84,54.12 
	149.48,53.52 149,53.04 148.52,52.68 148.04,52.68 "/>
<line class="st0" x1="151.28" y1="54.84" x2="159.8" y2="54.84"/>
<line class="st0" x1="54.68" y1="54.84" x2="68.6" y2="54.84"/>
<line class="st1" x1="20.48" y1="46.44" x2="9.8" y2="46.44"/>
<line class="st1" x1="20.48" y1="63.12" x2="9.8" y2="63.12"/>
<line class="st0" x1="20.48" y1="69.24" x2="41.96" y2="69.24"/>
<polyline class="st0" points="41.72,69 43.28,69 44.84,68.76 46.28,68.16 47.6,67.56 48.8,66.72 50.12,65.76 51.08,64.56 
	52.16,63.36 53,62.04 53.6,60.36 54.2,58.92 54.44,57.24 54.68,55.56 54.68,54 54.44,52.32 54.2,50.64 53.6,49.08 53,47.64 
	52.16,46.32 51.08,45 50.12,43.8 48.8,42.84 47.6,42 46.28,41.16 44.84,40.8 43.28,40.56 41.84,40.44 "/>
<polyline class="st0" points="41.84,40.44 20.48,40.44 20.48,69.12 "/>
<line class="st0" x1="20.84" y1="68.76" x2="41.96" y2="68.76"/>
<polyline class="st0" points="41.84,68.64 43.28,68.64 44.72,68.28 46.04,67.92 47.48,67.08 48.68,66.48 49.88,65.4 50.84,64.32 
	51.92,63 52.52,61.68 53.24,60.24 53.72,58.8 54.2,57.12 54.32,55.56 54.32,54 54.2,52.44 53.72,50.76 53.24,49.32 52.52,47.88 
	51.92,46.56 50.84,45.24 49.88,44.04 48.68,43.08 47.48,42.36 46.04,41.64 44.72,41.16 43.28,40.92 41.84,40.8 "/>
<polyline class="st0" points="41.84,40.92 20.96,40.92 20.96,68.76 "/>
<line class="st0" x1="21.08" y1="68.28" x2="41.96" y2="68.52"/>
<polyline class="st0" points="41.84,68.4 43.4,68.16 44.72,67.92 46.16,67.44 47.6,66.72 48.68,66 49.88,64.8 50.96,63.72 
	51.92,62.52 52.64,61.19 53.24,59.52 53.72,57.96 53.96,56.4 54.08,54.84 53.96,53.04 53.72,51.6 53.24,50.04 52.64,48.48 
	51.92,47.16 50.96,45.84 49.88,44.64 48.68,43.68 47.6,42.84 46.16,42.12 44.72,41.64 43.4,41.28 41.96,41.28 "/>
<polyline class="st0" points="41.84,41.16 21.2,41.28 21.2,68.4 "/>
<line class="st0" x1="21.44" y1="68.04" x2="41.96" y2="68.04"/>
<polyline class="st0" points="41.84,67.92 43.4,67.92 44.6,67.56 46.04,67.08 47.48,66.48 48.56,65.76 49.64,64.68 50.72,63.6 
	51.56,62.28 52.4,60.96 53,59.4 53.36,58.08 53.6,56.52 53.72,54.84 53.6,53.28 53.36,51.72 53,50.16 52.4,48.72 51.56,47.4 
	50.72,46.08 49.64,45 48.56,43.92 47.48,43.19 46.04,42.48 44.6,42.12 43.4,41.76 41.84,41.76 "/>
<polyline class="st0" points="41.72,41.52 21.32,41.64 21.32,67.92 "/>
<line class="st0" x1="21.8" y1="67.56" x2="41.96" y2="67.56"/>
<polyline class="st0" points="41.84,67.56 43.28,67.56 44.72,67.08 46.04,66.72 47.24,66.24 48.56,65.28 49.64,64.32 50.6,63.24 
	51.32,62.16 52.04,60.72 52.64,59.28 53,57.84 53.24,56.28 53.48,54.84 53.24,53.28 53,51.72 52.64,50.28 52.04,48.84 51.32,47.52 
	50.6,46.32 49.64,45.24 48.56,44.28 47.24,43.44 46.04,42.84 44.72,42.36 43.28,42 41.96,42 "/>
<polyline class="st0" points="41.84,41.88 21.8,42 21.8,67.56 "/>
<polyline class="st0" points="60.08,142.08 59.48,142.19 58.76,142.44 58.16,143.04 57.56,143.52 57.2,144.24 57.08,145.08 
	56.96,145.92 57.08,146.64 57.32,147.36 57.8,147.96 58.4,148.56 59.12,148.92 59.84,149.28 60.56,149.28 61.28,148.92 
	61.88,148.56 62.48,147.96 62.96,147.48 63.2,146.64 63.32,145.92 63.32,145.08 63.08,144.24 62.6,143.52 62.24,143.04 
	61.64,142.44 60.92,142.19 60.2,142.19 "/>
<polyline class="st0" points="60.08,142.44 59.48,142.56 58.76,142.8 58.16,143.28 57.8,143.88 57.44,144.6 57.32,145.44 
	57.32,146.28 57.56,146.88 58.04,147.72 58.52,148.08 59.12,148.56 59.84,148.8 60.56,148.8 61.16,148.56 61.88,148.08 
	62.24,147.72 62.6,146.88 62.96,146.28 63.08,145.44 62.84,144.6 62.6,143.88 62.12,143.28 61.52,142.8 60.8,142.56 60.2,142.44 "/>
<polyline class="st0" points="60.08,142.8 59.48,142.92 58.88,143.16 58.4,143.52 58.04,144.24 57.68,144.84 57.68,145.56 
	57.68,146.4 58.04,147 58.4,147.6 59,147.96 59.48,148.32 60.2,148.32 60.8,148.32 61.4,147.96 61.76,147.6 62.24,146.88 
	62.6,146.4 62.6,145.56 62.6,144.84 62.24,144.24 61.76,143.52 61.4,143.16 60.8,142.92 60.2,142.8 "/>
<polyline class="st0" points="59.96,143.28 59.48,143.4 58.88,143.64 58.52,144 58.16,144.72 58.04,145.32 58.04,146.04 
	58.16,146.64 58.52,147.24 58.88,147.72 59.48,147.96 60.08,147.96 60.8,147.96 61.16,147.72 61.76,147.24 62,146.64 62.24,146.04 
	62.24,145.32 62,144.72 61.76,144 61.16,143.64 60.8,143.4 60.08,143.28 "/>
<polyline class="st0" points="60.08,143.64 59.6,143.64 59.12,144 58.64,144.48 58.4,145.08 58.28,145.56 58.4,146.28 58.64,146.76 
	59.12,147.36 59.6,147.6 60.2,147.72 60.68,147.6 61.28,147.36 61.64,146.76 61.88,146.28 62,145.56 61.88,145.08 61.64,144.48 
	61.28,144 60.68,143.64 60.2,143.64 "/>
<line class="st1" x1="23.24" y1="154.08" x2="9.08" y2="154.08"/>
<line class="st1" x1="23.24" y1="137.28" x2="9.08" y2="137.28"/>
<line class="st0" x1="35.72" y1="131.28" x2="21.8" y2="131.28"/>
<polyline class="st0" points="21.8,159.96 22.64,157.08 23.12,154.32 23.72,151.44 23.96,148.56 23.96,145.56 23.96,142.68 
	23.72,139.92 23.12,136.92 22.64,134.04 21.8,131.4 "/>
<line class="st0" x1="21.8" y1="159.96" x2="35.84" y2="159.96"/>
<polyline class="st0" points="22.28,159.6 23.12,156.48 23.72,153.48 24.2,150.36 24.32,147.12 24.32,144 24.2,141 23.72,137.76 
	23.12,134.64 22.28,131.64 "/>
<line class="st0" x1="22.28" y1="159.6" x2="35.84" y2="159.6"/>
<polyline class="st0" points="22.64,159.12 23.36,156.24 23.96,153.24 24.32,150.24 24.56,147.24 24.56,144.24 24.32,141.12 
	23.96,138 23.36,135 22.64,132.12 "/>
<line class="st0" x1="22.64" y1="159.12" x2="35.84" y2="159.12"/>
<polyline class="st0" points="23.12,158.76 23.96,155.88 24.44,153 24.8,150.12 25.04,147.12 25.04,144.12 24.8,141.24 
	24.44,138.24 23.96,135.36 23.12,132.48 "/>
<line class="st0" x1="23.24" y1="158.76" x2="35.84" y2="158.76"/>
<polyline class="st0" points="23.72,158.4 24.44,155.28 24.92,152.16 25.16,148.92 25.4,145.68 25.16,142.44 24.92,139.08 
	24.44,136.08 23.72,132.84 "/>
<line class="st0" x1="23.72" y1="158.4" x2="35.84" y2="158.52"/>
<polyline class="st0" points="35.72,158.4 37.88,158.28 40.04,158.04 42.08,157.56 43.88,156.84 45.92,156.12 47.84,155.04 
	49.52,153.96 51.2,152.52 52.88,150.96 54.2,149.28 55.52,147.48 56.72,145.56 "/>
<polyline class="st0" points="56.48,145.56 55.4,143.52 54.08,141.84 52.76,140.16 51.08,138.6 49.4,137.16 47.72,136.08 
	45.92,135.12 43.88,134.28 41.96,133.56 39.92,133.08 37.76,132.84 35.72,132.84 "/>
<polyline class="st0" points="35.72,158.64 38,158.64 40.04,158.52 42.08,157.92 44.12,157.32 46.04,156.36 47.96,155.28 
	49.88,154.19 51.56,152.76 53.12,151.19 54.56,149.52 56,147.48 56.96,145.56 "/>
<polyline class="st0" points="57.08,145.56 56,143.64 54.56,141.72 53.12,140.04 51.56,138.48 49.88,137.16 47.96,135.96 
	46.16,134.88 44.12,133.92 42.2,133.32 39.92,132.72 38,132.6 35.84,132.48 "/>
<polyline class="st0" points="35.72,159.12 38,159.12 40.04,158.76 42.32,158.28 44.36,157.68 46.28,156.84 48.32,155.76 
	50.12,154.44 51.92,153 53.48,151.44 54.92,149.52 56.24,147.6 57.44,145.68 "/>
<polyline class="st0" points="57.32,145.56 56.24,143.64 54.92,141.72 53.48,139.92 51.92,138.24 50.12,136.92 48.32,135.48 
	46.28,134.52 44.36,133.68 42.2,132.84 40.04,132.36 37.88,132.24 35.84,132.12 "/>
<polyline class="st0" points="35.72,159.6 37.88,159.6 39.92,159.36 41.96,159 43.88,158.28 45.8,157.44 47.6,156.6 49.4,155.4 
	51.08,154.19 52.76,152.64 54.2,151.08 55.64,149.52 56.84,147.6 58.04,145.68 "/>
<polyline class="st0" points="57.92,145.44 56.84,143.52 55.64,141.72 54.2,140.16 52.76,138.48 51.08,137.04 49.4,135.84 
	47.6,134.64 45.8,133.68 43.88,132.84 41.96,132.24 39.92,131.76 37.88,131.52 35.84,131.52 "/>
<polyline class="st0" points="35.72,159.96 37.88,159.72 40.04,159.72 42.08,159.12 44,158.64 46.04,157.8 47.84,156.72 
	49.64,155.64 51.44,154.19 53.12,152.88 54.56,151.19 56,149.4 57.2,147.6 58.28,145.56 "/>
<polyline class="st0" points="58.28,145.56 57.2,143.52 56,141.72 54.56,140.04 53.12,138.24 51.44,136.8 49.64,135.48 47.96,134.4 
	46.04,133.44 44.12,132.6 42.08,132.12 40.04,131.52 37.88,131.4 35.84,131.28 "/>
<line class="st0" x1="35.72" y1="131.4" x2="22.28" y2="131.64"/>
<line class="st0" x1="35.72" y1="132" x2="22.76" y2="132.12"/>
<line class="st0" x1="35.84" y1="132.48" x2="23.24" y2="132.48"/>
<line class="st0" x1="35.72" y1="132.72" x2="23.72" y2="132.72"/>
<line class="st0" x1="63.32" y1="145.68" x2="75.2" y2="145.68"/>
<polyline class="st0" points="141.68,143.64 140.96,143.64 140.48,144 140.24,144.48 139.88,145.08 139.88,145.56 139.88,146.28 
	140.24,146.76 140.48,147.36 140.96,147.6 141.68,147.72 142.16,147.6 142.64,147.36 143.24,146.76 143.36,146.28 143.36,145.56 
	143.36,145.08 143.24,144.48 142.64,144 142.16,143.64 141.68,143.64 "/>
<polyline class="st0" points="141.56,143.28 140.96,143.4 140.36,143.64 139.88,144 139.64,144.72 139.4,145.32 139.4,146.04 
	139.64,146.64 139.88,147.24 140.36,147.72 140.96,147.96 141.56,147.96 142.16,147.96 142.76,147.72 143.24,147.24 143.48,146.64 
	143.72,146.04 143.72,145.32 143.48,144.72 143.24,144 142.76,143.64 142.16,143.4 141.56,143.28 "/>
<polyline class="st0" points="141.56,142.8 140.96,142.92 140.24,143.16 139.88,143.52 139.52,144.24 139.16,144.84 139.16,145.56 
	139.16,146.4 139.52,147 139.88,147.6 140.36,147.96 140.96,148.32 141.56,148.32 142.28,148.32 142.88,147.96 143.36,147.6 
	143.72,146.88 143.96,146.4 144.08,145.56 143.96,144.84 143.72,144.24 143.36,143.52 142.76,143.16 142.28,142.92 141.56,142.8 "/>
<polyline class="st0" points="141.56,142.44 140.84,142.56 140.24,142.8 139.64,143.28 139.16,143.88 138.8,144.6 138.68,145.44 
	138.8,146.28 138.92,146.88 139.4,147.72 139.88,148.08 140.6,148.56 141.2,148.8 141.92,148.8 142.64,148.56 143.24,148.08 
	143.72,147.72 144.08,146.88 144.32,146.28 144.44,145.44 144.32,144.6 143.96,143.88 143.48,143.28 142.88,142.8 142.28,142.56 
	141.56,142.44 "/>
<polyline class="st0" points="141.68,142.08 140.96,142.19 140.24,142.44 139.64,143.04 138.92,143.52 138.68,144.24 138.56,145.08 
	138.44,145.92 138.68,146.64 138.92,147.36 139.28,147.96 139.88,148.56 140.48,148.92 141.32,149.28 141.92,149.28 142.64,148.92 
	143.36,148.56 143.84,147.96 144.32,147.48 144.68,146.64 144.8,145.92 144.68,145.08 144.44,144.24 144.2,143.52 143.6,143.04 
	143,142.44 142.28,142.19 141.68,142.19 "/>
<polyline class="st0" points="136.52,145.56 121.88,153.72 121.88,137.28 136.64,145.56 "/>
<polyline class="st0" points="137.24,145.56 121.52,154.44 121.52,136.68 137.36,145.56 "/>
<polyline class="st0" points="138.2,145.68 121.28,155.04 121.28,136.19 138.32,145.68 "/>
<polyline class="st0" points="138.92,145.56 121.04,155.52 121.04,135.48 138.92,145.56 "/>
<polyline class="st0" points="139.52,145.68 120.44,156.36 120.44,135 139.64,145.68 "/>
<line class="st0" x1="101" y1="145.68" x2="120.56" y2="145.68"/>
<line class="st0" x1="144.68" y1="145.68" x2="162.32" y2="145.68"/>
<line class="st1" x1="253.28" y1="145.68" x2="213.8" y2="169.56"/>
<line class="st1" x1="252.68" y1="145.56" x2="214.04" y2="169.08"/>
<polyline class="st1" points="213.92,123.12 251.12,145.68 213.92,168.24 "/>
<polyline class="st2" points="213.8,122.52 251.96,145.56 213.92,168.48 "/>
<polyline class="st1" points="213.68,121.19 254,145.56 213.8,169.8 "/>
<line class="st0" x1="206.6" y1="159.96" x2="193.64" y2="159.96"/>
<line class="st0" x1="206.6" y1="131.28" x2="193.64" y2="131.28"/>
<polyline class="st0" points="214.04,123.12 212.36,124.8 210.92,126.72 209.48,128.64 208.4,130.68 207.44,132.72 206.6,135 
	205.88,137.28 205.4,139.68 205.04,142.08 204.68,144.48 204.68,146.88 205.04,149.28 205.4,151.8 205.88,153.96 206.6,156.36 
	207.44,158.52 208.4,160.8 209.48,162.72 210.92,164.76 212.36,166.44 214.04,168.24 "/>
<polyline class="st0" points="213.8,122.64 212.36,124.44 210.8,126.24 209.48,128.28 208.16,130.32 207.2,132.48 206.36,134.76 
	205.52,137.16 205.04,139.56 204.56,141.96 204.44,144.48 204.44,146.88 204.56,149.28 205.04,151.92 205.52,154.32 206.36,156.48 
	207.2,158.76 208.16,161.04 209.48,163.19 210.8,165 212.36,166.92 213.92,168.6 "/>
<polyline class="st1" points="213.8,122.28 212.36,123.84 210.8,125.64 209.48,127.56 208.16,129.6 207.08,131.76 206.24,133.8 
	205.52,136.08 204.92,138.48 204.44,140.88 204.2,143.28 204.2,145.68 204.2,148.08 204.44,150.6 204.92,153 205.52,155.16 
	206.24,157.44 207.08,159.72 208.16,161.88 209.48,163.8 210.8,165.72 212.36,167.4 213.92,169.19 "/>
<polyline class="st2" points="213.92,121.56 212.24,123.36 210.8,125.28 209.36,127.08 208.04,129.24 206.96,131.28 206,133.56 
	205.28,135.84 204.68,138.24 204.2,140.64 203.96,143.16 203.96,145.56 203.96,148.08 204.2,150.48 204.68,153 205.28,155.28 
	206,157.56 206.96,159.84 208.04,162 209.36,164.16 210.8,165.96 212.24,167.76 213.92,169.44 "/>
<polyline class="st1" points="213.68,121.32 212.12,122.88 210.68,124.56 209.24,126.36 207.92,128.4 206.84,130.56 205.88,132.72 
	205.04,134.88 204.32,137.16 203.96,139.56 203.6,141.96 203.36,144.36 203.36,146.76 203.6,149.16 203.96,151.68 204.32,153.96 
	205.04,156.36 205.88,158.52 206.84,160.8 207.92,162.6 209.24,164.64 210.68,166.56 212.12,168.24 213.8,169.8 "/>
<line class="st1" x1="213.8" y1="122.16" x2="252.56" y2="145.56"/>
<line class="st1" x1="213.92" y1="121.8" x2="253.4" y2="145.68"/>
<text transform="matrix(1 0 0 1 92.72 22.5499)" class="st3 st4 st5">Figure E6-3</text>
<text transform="matrix(1 0 0 1 30.0804 92.2701)" class="st3 st4 st6">1</text>
<text transform="matrix(1 0 0 1 122.8401 89.3902)" class="st3 st4 st6">2</text>
<text transform="matrix(1 0 0 1 212.3597 89.0298)" class="st3 st4 st6">3</text>
<text transform="matrix(1 0 0 1 32.9603 174.3502)" class="st3 st4 st6 st7">4</text>
<text transform="matrix(1 0 0 1 122.8303 174.3502)" class="st3 st4 st6 st8">5</text>
<text transform="matrix(1 0 0 1 222.7803 174.3502)" class="st3 st4 st6">6</text>
</svg>
