<?xml version="1.0" encoding="utf-8"?>
<!-- Generator: Adobe Illustrator 24.0.0, SVG Export Plug-In . SVG Version: 6.00 Build 0)  -->
<svg version="1.1" xmlns="http://www.w3.org/2000/svg" xmlns:xlink="http://www.w3.org/1999/xlink" x="0px" y="0px"
	 viewBox="0 0 252 231" style="enable-background:new 0 0 252 231;" xml:space="preserve">
<style type="text/css">
	.st0{fill:#010101;}
	.st1{fill:none;stroke:#010101;stroke-width:1.08;stroke-linecap:round;stroke-linejoin:round;stroke-miterlimit:10;}
	.st2{font-family:'Arial-BoldMT';}
	.st3{font-size:15.98px;}
	.st4{fill:none;stroke:#000000;stroke-width:2.5112;stroke-linecap:round;stroke-linejoin:round;stroke-miterlimit:10;}
	.st5{fill:none;stroke:#000000;stroke-miterlimit:10;}
	.st6{font-size:14px;}
</style>
<g id="Layer_1">
	<polygon class="st0" points="135.36,124.52 142.32,136.4 128.16,137.12 	"/>
	<polygon class="st1" points="135.36,124.52 142.32,136.4 128.16,137.12 	"/>
	<polyline class="st1" points="128.04,137.12 142.32,136.4 135.72,124.52 128.28,137.12 	"/>
	<path class="st0" d="M148.56,140"/>
	<path class="st1" d="M148.56,140"/>
	<path class="st0" d="M149.76,98.6"/>
	<path class="st1" d="M149.76,98.6"/>
	<line class="st0" x1="149.76" y1="98.72" x2="148.56" y2="100.4"/>
	<line class="st1" x1="169.8" y1="208.76" x2="165" y2="216.92"/>
	<line class="st1" x1="134.28" y1="216.8" x2="139.32" y2="208.88"/>
	<line class="st1" x1="75.72" y1="135.2" x2="81.84" y2="138.2"/>
	<line class="st1" x1="154.56" y1="39.92" x2="186.85" y2="39.92"/>
	<polyline class="st1" points="160.92,51.8 154.8,48.68 154.8,40.16 	"/>
	<polyline class="st1" points="160.8,51.68 148.44,57.68 160.8,63.68 	"/>
	<line class="st1" x1="154.56" y1="97.28" x2="154.8" y2="84.56"/>
	<polyline class="st1" points="148.44,69.44 160.8,75.56 148.44,81.56 154.8,84.68 	"/>
	<line class="st1" x1="160.8" y1="63.68" x2="148.44" y2="69.68"/>
	<polyline class="st1" points="81.72,61.88 75.72,59 75.72,40.16 	"/>
	<polyline class="st1" points="69.48,68 81.84,74 69.48,79.88 81.84,85.88 69.48,91.76 75.6,94.76 	"/>
	<line class="st1" x1="81.72" y1="61.88" x2="69.48" y2="68"/>
	<line class="st1" x1="154.56" y1="39.92" x2="75.72" y2="40.16"/>
	<line class="st1" x1="45.12" y1="128.24" x2="45.12" y2="112.03"/>
	<polyline class="st1" points="53.64,112.16 52.56,113.48 51.6,115.03 50.76,116.72 50.4,118.52 50.28,120.32 50.4,122.12 
		50.76,123.8 51.6,125.48 52.56,127.16 53.64,128.48 	"/>
	<line class="st1" x1="45" y1="119.96" x2="33.85" y2="119.96"/>
	<line class="st1" x1="90.84" y1="181.4" x2="85.8" y2="189.68"/>
	<line class="st1" x1="55.32" y1="189.68" x2="60.48" y2="181.4"/>
	<line class="st1" x1="81.72" y1="138.32" x2="69.48" y2="144.32"/>
	<polyline class="st1" points="81.72,150.08 69.48,156.2 81.84,162.08 69.48,168.08 75.6,171.08 	"/>
	<line class="st1" x1="69.48" y1="144.08" x2="81.84" y2="150.2"/>
	<line class="st1" x1="75.72" y1="181.4" x2="70.68" y2="189.68"/>
	<line class="st1" x1="60.36" y1="181.52" x2="90.96" y2="181.52"/>
	<line class="st1" x1="75.72" y1="170.96" x2="75.72" y2="181.4"/>
	<line class="st1" x1="75.72" y1="94.76" x2="75.72" y2="135.2"/>
	<polyline class="st1" points="50.16,119.96 93.48,120.2 124.08,120.2 	"/>
	<line class="st1" x1="123.9" y1="105.39" x2="124.26" y2="134.79"/>
	<line class="st1" x1="124.16" y1="126.79" x2="154.68" y2="143"/>
	<line class="st1" x1="124.26" y1="113.44" x2="154.68" y2="97.52"/>
	<line class="st1" x1="182.28" y1="101.84" x2="182.28" y2="85.76"/>
	<polyline class="st1" points="190.68,85.64 189.6,87.08 188.64,88.52 187.8,90.32 187.44,92 187.32,93.92 187.44,95.72 187.8,97.4 
		188.64,99.08 189.6,100.64 190.68,102.08 	"/>
	<line class="st1" x1="154.56" y1="94.03" x2="182.16" y2="94.03"/>
	<line class="st1" x1="187.32" y1="94.03" x2="217.68" y2="94.03"/>
	<line class="st1" x1="182.88" y1="160.28" x2="183.12" y2="143.96"/>
	<polyline class="st1" points="191.4,143.96 190.32,145.64 189.48,146.96 188.64,148.64 188.28,150.32 188.04,152.36 188.28,154.03 
		188.64,155.72 189.48,157.4 190.32,159.08 191.4,160.52 	"/>
	<line class="st1" x1="154.56" y1="152" x2="182.88" y2="151.97"/>
	<line class="st1" x1="221.4" y1="177.92" x2="216.36" y2="186.2"/>
	<line class="st1" x1="236.88" y1="177.92" x2="231.84" y2="186.2"/>
	<line class="st1" x1="221.4" y1="152.12" x2="221.64" y2="177.92"/>
	<line class="st1" x1="201.12" y1="185.84" x2="206.28" y2="177.92"/>
	<line class="st1" x1="188.04" y1="152" x2="221.4" y2="151.97"/>
	<line class="st1" x1="206.4" y1="178.03" x2="236.88" y2="178.03"/>
	<polyline class="st1" points="160.92,165.56 154.8,162.56 154.8,143 	"/>
	<line class="st1" x1="160.8" y1="165.56" x2="148.44" y2="171.56"/>
	<polyline class="st1" points="149.52,216.92 154.68,208.88 154.68,198.32 	"/>
	<line class="st1" x1="139.32" y1="208.64" x2="169.92" y2="208.88"/>
	<polyline class="st1" points="160.8,177.32 148.44,183.32 160.8,189.44 148.44,195.56 154.8,198.32 	"/>
	<line class="st1" x1="148.44" y1="171.56" x2="160.8" y2="177.56"/>
	<text transform="matrix(1 0 0 1 86.1599 19.7497)" class="st0 st2 st3">Figure E7-1</text>
</g>
<g id="Layer_2">
	<circle class="st4" cx="133.92" cy="120.62" r="25.6"/>
	<circle cx="75.72" cy="120.32" r="3.87"/>
	<circle cx="154.8" cy="152.12" r="3.87"/>
	<circle cx="155.1" cy="94.28" r="3.87"/>
	<circle cx="154.86" cy="39.69" r="3.87"/>
	<circle class="st5" cx="191.99" cy="39.92" r="5.17"/>
	<circle class="st5" cx="28.68" cy="120.14" r="5.17"/>
	<circle class="st5" cx="222.78" cy="94.03" r="5.17"/>
	<text transform="matrix(1 0 0 1 6.7901 125.24)" class="st0 st2 st6">IN</text>
	<text transform="matrix(1 0 0 1 210.933 113.9362)" class="st0 st2 st6">OUT</text>
	<text transform="matrix(1 0 0 1 86.2366 81.6541)" class="st0 st2 st6">R1</text>
	<text transform="matrix(1 0 0 1 43.4399 104.12)" class="st0 st2 st6">C1</text>
	<text transform="matrix(1 0 0 1 86.1125 159.7905)" class="st0 st2 st6">R2</text>
	<text transform="matrix(1 0 0 1 169.4325 186.7095)" class="st0 st2 st6">R3</text>
	<text transform="matrix(1 0 0 1 177.7199 137.12)" class="st0 st2 st6">C3</text>
	<text transform="matrix(1 0 0 1 176.3822 79.5331)" class="st0 st2 st6">C2</text>
	<text transform="matrix(1 0 0 1 200.6807 45.095)" class="st0 st2 st6">+</text>
</g>
</svg>
