<?xml version="1.0" encoding="utf-8"?>
<!-- Generator: Adobe Illustrator 24.0.0, SVG Export Plug-In . SVG Version: 6.00 Build 0)  -->
<svg version="1.1" id="Layer_1" xmlns="http://www.w3.org/2000/svg" xmlns:xlink="http://www.w3.org/1999/xlink" x="0px" y="0px"
	 viewBox="0 0 253 212" style="enable-background:new 0 0 253 212;" xml:space="preserve">
<style type="text/css">
	.st0{fill:none;stroke:#010101;stroke-width:1.2;stroke-linecap:round;stroke-linejoin:round;stroke-miterlimit:10;}
	.st1{font-family:'Arial-BoldMT';}
	.st2{font-size:16.23px;}
	.st3{font-size:11.78px;}
	.st4{fill:none;stroke:#000000;stroke-width:3;stroke-linecap:round;stroke-linejoin:round;stroke-miterlimit:10;}
	.st5{fill:none;stroke:#000000;stroke-width:1.2;stroke-miterlimit:10;}
</style>
<polyline class="st0" points="146.78,68.5 146.42,56.85 136.1,62.62 146.9,68.5 "/>
<polyline class="st0" points="146.42,67.66 145.94,57.46 136.94,62.62 146.42,67.9 "/>
<polyline class="st0" points="145.82,66.94 145.46,58.18 137.9,62.62 145.94,66.94 "/>
<polyline class="st0" points="145.46,66.22 145.1,58.9 138.74,62.62 145.46,66.22 "/>
<polyline class="st0" points="144.86,65.26 144.62,59.62 139.7,62.5 144.86,65.26 "/>
<polyline class="st0" points="144.38,64.42 144.26,60.34 140.66,62.5 144.5,64.54 "/>
<polyline class="st0" points="144.02,63.7 143.9,61.3 141.74,62.62 144.02,63.82 "/>
<polyline class="st0" points="143.42,62.98 143.42,62.02 142.46,62.5 143.54,62.98 "/>
<line class="st0" x1="187.1" y1="78.1" x2="203.61" y2="78.1"/>
<line class="st0" x1="33.74" y1="158.98" x2="60.74" y2="158.98"/>
<polygon points="125.18,161.38 132.26,146.98 139.34,161.38 "/>
<polygon class="st0" points="125.18,161.38 132.26,146.98 139.34,161.38 "/>
<polygon points="136.1,62.38 146.42,56.85 146.9,68.5 "/>
<polygon class="st0" points="136.1,62.38 146.42,56.85 146.9,68.5 "/>
<line class="st0" x1="132.26" y1="120.1" x2="75.98" y2="120.34"/>
<line class="st0" x1="151.82" y1="46.42" x2="221.63" y2="46.3"/>
<line class="st0" x1="172.7" y1="46.42" x2="172.82" y2="73.18"/>
<line class="st0" x1="24.14" y1="50.5" x2="24.14" y2="78.94"/>
<line class="st0" x1="112.58" y1="46.42" x2="28.34" y2="46.42"/>
<line class="st0" x1="137.9" y1="71.74" x2="151.94" y2="46.3"/>
<line class="st0" x1="126.74" y1="71.74" x2="112.58" y2="46.3"/>
<line class="st0" x1="119.66" y1="71.85" x2="144.98" y2="71.98"/>
<line class="st0" x1="165.62" y1="73.18" x2="179.78" y2="73.3"/>
<polyline class="st0" points="179.78,80.5 178.58,79.54 177.26,78.7 175.82,78.1 174.38,77.74 172.82,77.74 171.26,77.74 
	169.82,78.1 168.38,78.7 167.06,79.54 165.74,80.5 "/>
<line class="st0" x1="17.06" y1="78.94" x2="31.1" y2="78.94"/>
<polyline class="st0" points="31.1,86.02 29.78,85.18 28.58,84.46 27.14,83.85 25.7,83.38 24.14,83.26 22.58,83.38 21.02,83.85 
	19.7,84.46 18.38,85.18 17.06,86.14 "/>
<line class="st0" x1="68.9" y1="154.78" x2="83.06" y2="154.78"/>
<polyline class="st0" points="83.06,161.85 81.86,160.9 80.42,160.18 78.98,159.58 77.66,159.1 75.98,159.1 74.54,159.1 
	72.98,159.58 71.54,160.18 70.22,160.9 69.02,161.85 "/>
<polyline class="st0" points="209.18,118.66 213.5,111.7 238.82,111.7 234.62,118.78 "/>
<polyline class="st0" points="226.16,50.83 226.22,65.14 231.38,67.78 220.94,73.06 231.38,78.34 220.94,83.62 231.38,88.66 
	220.94,94.06 226.22,96.58 226.22,111.7 221.9,118.78 "/>
<polyline class="st0" points="172.82,77.74 172.82,111.7 168.5,118.78 "/>
<polyline class="st0" points="155.78,118.78 159.98,111.7 185.42,111.7 181.1,118.78 "/>
<g>
	<g>
		<polyline class="st0" points="132.26,71.85 132.26,97.54 132.26,131.5 132.26,194.62 128.06,201.7 		"/>
	</g>
</g>
<g>
	<g>
		<polyline class="st0" points="115.34,201.58 119.66,194.5 144.86,194.5 140.66,201.7 		"/>
	</g>
</g>
<polyline class="st0" points="59.18,189.82 63.26,182.85 88.58,182.85 84.5,190.06 "/>
<polyline class="st0" points="75.98,158.98 75.98,182.85 71.78,190.06 "/>
<polyline class="st0" points="75.98,46.3 75.98,64.06 81.14,66.94 70.94,71.98 81.14,77.26 70.94,82.54 81.14,87.7 70.94,92.98 
	75.98,95.5 75.98,154.78 "/>
<polyline class="st0" points="24.14,83.14 24.14,111.94 19.94,119.14 "/>
<g>
	<g>
		<polyline class="st0" points="7.1,119.02 11.54,111.94 36.74,111.94 32.54,119.14 		"/>
	</g>
</g>
<line class="st0" x1="128.06" y1="159.58" x2="136.34" y2="159.58"/>
<polyline class="st0" points="132.74,157.18 131.78,157.18 132.26,156.22 132.74,157.18 "/>
<polyline class="st0" points="133.46,157.66 131.18,157.78 132.38,155.26 133.58,157.78 "/>
<polyline class="st0" points="134.06,158.14 130.22,158.14 132.26,154.3 134.3,158.14 "/>
<polyline class="st0" points="134.9,158.5 129.62,158.62 132.38,153.1 135.02,158.62 "/>
<polyline class="st0" points="135.62,158.98 128.9,159.1 132.26,152.26 135.74,159.1 "/>
<polyline class="st0" points="128.06,159.58 132.26,151.18 136.34,159.58 "/>
<polyline class="st0" points="137.06,159.94 127.58,159.94 132.38,150.1 137.3,159.94 "/>
<polyline class="st0" points="137.78,160.42 126.86,160.42 132.38,149.14 137.9,160.42 "/>
<polyline class="st0" points="138.5,160.9 126.02,160.9 132.26,148.18 138.62,160.9 "/>
<polyline class="st0" points="139.22,161.38 125.18,161.38 132.26,146.98 139.34,161.38 "/>
<polygon points="122.18,151.06 122.54,151.54 125.06,146.85 "/>
<polygon class="st0" points="122.18,151.06 122.54,151.54 125.06,146.85 "/>
<polygon points="122.66,151.54 125.06,146.85 125.42,147.46 "/>
<polygon class="st0" points="122.66,151.54 125.06,146.85 125.42,147.46 "/>
<polygon points="125.18,146.74 125.42,147.46 139.22,146.85 "/>
<polygon class="st0" points="125.18,146.74 125.42,147.46 139.22,146.85 "/>
<polygon points="125.42,147.34 139.22,146.85 139.46,147.46 "/>
<polygon class="st0" points="125.42,147.34 139.22,146.85 139.46,147.46 "/>
<polygon points="139.1,146.74 139.46,147.46 141.98,142.66 "/>
<polygon class="st0" points="139.1,146.74 139.46,147.46 141.98,142.66 "/>
<polygon points="139.46,147.22 141.98,142.66 142.34,142.9 "/>
<polygon class="st0" points="139.46,147.22 141.98,142.66 142.34,142.9 "/>
<text transform="matrix(1 0 0 1 91.5763 20.007)" class="st1 st2">Figure E7-2</text>
<line class="st0" x1="41.96" y1="80.14" x2="61.94" y2="80.14"/>
<text transform="matrix(1 0 0 1 43.5763 77.487)" class="st1 st3">C1</text>
<text transform="matrix(1 0 0 1 187.9357 75.2067)" class="st1 st3">C3</text>
<text transform="matrix(1 0 0 1 12.7365 39.4469)" class="st1 st3">+25</text>
<text transform="matrix(1 0 0 1 214.9357 39.9269)" class="st1 st3">+12</text>
<text transform="matrix(1 0 0 1 234.0157 84.9269)" class="st1 st3">R2</text>
<text transform="matrix(1 0 0 1 83.8956 82.6466)" class="st1 st3">R1</text>
<text transform="matrix(1 0 0 1 38.1759 155.6066)" class="st1 st3">C2</text>
<text transform="matrix(1 0 0 1 159.4962 159.2072)" class="st1 st3">D1</text>
<text transform="matrix(1 0 0 1 33.4962 169.8869)" class="st1 st3">4000</text>
<text transform="matrix(1 0 0 1 37.6964 91.5265)" class="st1 st3">4000</text>
<text transform="matrix(1 0 0 1 184.0958 89.4865)" class="st1 st3">0.01</text>
<text transform="matrix(1 0 0 1 125.296 37.2868)" class="st1 st3">Q1</text>
<circle class="st4" cx="131.78" cy="154.18" r="22.96"/>
<circle class="st4" cx="133.16" cy="63.92" r="22.96"/>
<circle cx="76.1" cy="120.34" r="3.55"/>
<circle cx="132.2" cy="120.1" r="3.55"/>
<circle cx="172.82" cy="46.42" r="3.55"/>
<circle cx="75.98" cy="46.3" r="3.55"/>
<circle class="st5" cx="24.08" cy="46.13" r="4.53"/>
<circle class="st5" cx="226.16" cy="46.3" r="4.53"/>
</svg>
