<?xml version="1.0" encoding="utf-8"?>
<!-- Generator: Adobe Illustrator 24.0.0, SVG Export Plug-In . SVG Version: 6.00 Build 0)  -->
<svg version="1.1" id="Layer_1" xmlns="http://www.w3.org/2000/svg" xmlns:xlink="http://www.w3.org/1999/xlink" x="0px" y="0px"
	 viewBox="0 0 214 210" style="enable-background:new 0 0 214 210;" xml:space="preserve">
<style type="text/css">
	.st0{fill:none;stroke:#010101;stroke-width:0.96;stroke-linecap:round;stroke-linejoin:round;stroke-miterlimit:10;}
	.st1{fill:none;stroke:#010101;stroke-width:0.96;stroke-linejoin:round;stroke-miterlimit:10;}
	.st2{fill:none;stroke:#010101;stroke-linecap:round;stroke-linejoin:round;stroke-miterlimit:10;}
	.st3{fill:none;stroke:#010101;stroke-linejoin:round;stroke-miterlimit:10;}
	.st4{fill:#010101;}
	.st5{font-family:'Arial-BoldMT';}
	.st6{font-size:15px;}
	.st7{clip-path:url(#SVGID_2_);}
	.st8{font-size:15.96px;}
	.st9{clip-path:url(#SVGID_4_);}
	.st10{clip-path:url(#SVGID_6_);}
	.st11{fill:none;stroke:#010101;stroke-width:0.9647;stroke-linecap:round;stroke-linejoin:round;stroke-miterlimit:10;}
	.st12{fill:none;stroke:#000000;stroke-width:0.96;stroke-miterlimit:10;}
</style>
<line class="st0" x1="106.69" y1="113.76" x2="112.09" y2="114"/>
<line class="st0" x1="106.69" y1="149.04" x2="112.09" y2="149.28"/>
<line class="st0" x1="109.33" y1="152.28" x2="109.57" y2="145.92"/>
<line class="st0" x1="157.57" y1="131.4" x2="107.89" y2="99.48"/>
<line class="st0" x1="156.25" y1="131.4" x2="107.53" y2="100.08"/>
<polyline class="st0" points="107.53,161.64 154.69,131.64 107.53,101.28 "/>
<polyline class="st0" points="107.89,162.48 155.89,131.64 108.13,100.8 "/>
<polyline class="st1" points="107.29,164.28 158.05,131.64 107.53,98.88 "/>
<line class="st0" x1="98.29" y1="112.2" x2="81.97" y2="112.32"/>
<line class="st0" x1="98.29" y1="150.71" x2="81.97" y2="150.96"/>
<polyline class="st0" points="107.89,101.28 105.97,103.56 104.17,105.96 102.37,108.6 101.05,111.36 99.73,114.36 98.65,117.12 
	97.81,120.48 97.09,123.48 96.73,126.6 96.37,129.84 96.37,133.32 96.73,136.32 97.09,139.68 97.81,142.68 98.65,145.8 
	99.73,148.68 101.05,151.8 102.37,154.44 104.17,157.08 105.97,159.48 107.89,161.64 "/>
<polyline class="st2" points="108.13,100.68 106.09,102.96 104.29,105.48 102.49,108.12 101.05,111 99.73,113.76 98.65,116.88 
	97.57,120.12 96.97,123.24 96.49,126.6 96.25,129.84 96.25,133.2 96.49,136.32 96.97,139.8 97.57,143.04 98.65,146.16 99.73,149.28 
	101.05,152.16 102.49,154.92 104.29,157.68 106.09,160.2 108.25,162.36 "/>
<polyline class="st0" points="107.41,100.08 105.49,102.48 103.57,104.64 101.77,107.16 100.33,109.8 99.01,112.8 97.81,115.8 
	96.85,118.8 96.13,121.8 95.53,125.04 95.29,128.16 95.29,131.64 95.29,134.76 95.53,138 96.13,141.24 96.85,144.48 97.81,147.48 
	99.01,150.24 100.33,153.12 101.77,155.88 103.57,158.28 105.49,160.56 107.53,162.96 "/>
<polyline class="st0" points="107.77,99.36 105.61,101.76 103.81,104.16 102.01,106.68 100.33,109.56 99.01,112.44 97.81,115.32 
	96.85,118.44 95.89,121.68 95.53,124.8 95.05,128.16 95.05,131.64 95.05,134.76 95.53,138.24 95.89,141.36 96.85,144.6 97.81,147.6 
	99.01,150.71 100.33,153.48 102.01,156.36 103.81,158.88 105.61,161.28 107.77,163.44 "/>
<polyline class="st3" points="107.77,98.88 105.73,100.92 103.93,103.2 102.25,105.96 100.57,108.48 99.25,111.24 98.05,114.12 
	96.97,117.12 96.01,120.36 95.41,123.48 95.17,126.6 94.81,129.84 94.81,133.2 95.17,136.32 95.41,139.68 96.01,142.68 96.97,145.8 
	98.05,148.92 99.25,151.8 100.57,154.56 102.25,157.2 103.93,159.71 105.73,162 107.89,164.28 "/>
<line class="st0" x1="107.41" y1="162.84" x2="156.37" y2="131.52"/>
<line class="st0" x1="107.77" y1="163.56" x2="157.69" y2="131.52"/>
<line class="st0" x1="81.97" y1="112.2" x2="58.21" y2="112.32"/>
<polyline class="st0" points="81.85,112.32 81.97,67.44 117.73,67.44 "/>
<line class="st0" x1="174.37" y1="67.32" x2="174.61" y2="131.52"/>
<line class="st0" x1="158.29" y1="131.4" x2="198.85" y2="131.64"/>
<polyline class="st0" points="198.85,157.08 183.01,157.08 183.01,170.04 178.81,178.08 "/>
<polyline class="st0" points="191.05,177.84 195.25,170.04 170.89,170.04 166.69,178.08 "/>
<polyline class="st0" points="82.45,150.71 82.57,189.24 78.49,197.28 "/>
<polyline class="st0" points="90.49,197.04 94.69,189.24 70.45,189.24 66.25,197.28 "/>
<polyline class="st0" points="28.57,112.2 31.21,106.56 36.13,118.32 41.05,106.56 46.09,118.32 51.01,106.56 56.05,118.32 
	58.57,112.44 "/>
<line class="st0" x1="28.57" y1="112.2" x2="15.13" y2="112.32"/>
<polyline class="st0" points="117.85,67.32 120.49,61.68 125.41,73.32 130.33,61.68 135.37,73.32 140.29,61.68 145.33,73.32 
	147.73,67.56 174.85,67.56 "/>
<text transform="matrix(1 0 0 1 67.4504 20.1499)" class="st4 st5 st6">Figure E7-3</text>
<g>
	<g>
		<defs>
			<rect id="SVGID_1_" x="37.21" y="87" width="20.4" height="18.12"/>
		</defs>
		<clipPath id="SVGID_2_">
			<use xlink:href="#SVGID_1_"  style="overflow:visible;"/>
		</clipPath>
		<g class="st7">
			<text transform="matrix(1 0 0 1 37.2102 101.75)" class="st4 st5 st8">R1</text>
		</g>
	</g>
</g>
<g>
	<g>
		<defs>
			<rect id="SVGID_3_" x="117.49" y="42.24" width="11.52" height="18.12"/>
		</defs>
		<clipPath id="SVGID_4_">
			<use xlink:href="#SVGID_3_"  style="overflow:visible;"/>
		</clipPath>
		<g class="st9">
			<text transform="matrix(1 0 0 1 117.4905 56.9902)" class="st4 st5 st8">R</text>
		</g>
	</g>
</g>
<g>
	<g>
		<defs>
			<rect id="SVGID_5_" x="129.61" y="46.2" width="9.72" height="18.12"/>
		</defs>
		<clipPath id="SVGID_6_">
			<use xlink:href="#SVGID_5_"  style="overflow:visible;"/>
		</clipPath>
		<g class="st10">
			<text transform="matrix(1 0 0 1 129.6096 60.9502)" class="st4 st5 st8">F</text>
		</g>
	</g>
</g>
<polyline class="st11" points="107.83,100.08 105.86,102.04 104.12,104.23 102.49,106.89 100.87,109.31 99.59,111.96 98.43,114.73 
	97.38,117.62 96.45,120.73 95.87,123.73 95.64,126.73 95.29,129.85 95.29,133.08 95.64,136.08 95.87,139.31 96.45,142.19 
	97.38,145.19 98.43,148.19 99.59,150.96 100.87,153.61 102.49,156.15 104.12,158.57 105.86,160.77 107.95,162.96 "/>
<circle cx="174.61" cy="131.64" r="3.55"/>
<circle cx="81.97" cy="112.2" r="3.55"/>
<circle cx="82.45" cy="150.59" r="3.55"/>
<circle class="st12" cx="10.6" cy="112.2" r="4.53"/>
<circle class="st12" cx="203.38" cy="131.64" r="4.53"/>
<circle class="st12" cx="203.38" cy="157.08" r="4.53"/>
</svg>
