<?xml version="1.0" encoding="utf-8"?>
<!-- Generator: Adobe Illustrator 24.0.0, SVG Export Plug-In . SVG Version: 6.00 Build 0)  -->
<svg version="1.1" xmlns="http://www.w3.org/2000/svg" xmlns:xlink="http://www.w3.org/1999/xlink" x="0px" y="0px"
	 viewBox="0 0 244 215" style="enable-background:new 0 0 244 215;" xml:space="preserve">
<style type="text/css">
	.st0{fill:none;stroke:#000000;stroke-width:0.5;stroke-miterlimit:10;}
	.st1{fill:none;stroke:#FFFFFF;stroke-width:0.12;stroke-linecap:round;stroke-linejoin:round;stroke-miterlimit:10;}
	.st2{fill:#010101;}
	.st3{font-family:'Arial-BoldMT';}
	.st4{font-size:12.13px;}
	.st5{letter-spacing:2;}
	.st6{font-size:7.28px;}
	.st7{enable-background:new    ;}
	.st8{font-family:'ArialMT';}
	.st9{font-size:9.71px;}
	.st10{font-size:8.51px;}
	.st11{fill:none;stroke:#000000;stroke-width:2;stroke-miterlimit:10;}
</style>
<g id="Layer_3">
	<circle class="st0" cx="110.14" cy="118.41" r="0.74"/>
	<circle class="st0" cx="110.14" cy="118.41" r="5.5"/>
	<circle class="st0" cx="110.14" cy="118.41" r="10.6"/>
	<circle class="st0" cx="110.14" cy="118.41" r="88.57"/>
	<line class="st0" x1="109.4" y1="118.41" x2="21.57" y2="119.18"/>
	<line class="st0" x1="101.02" y1="123.78" x2="33.82" y2="163.36"/>
	<line class="st0" x1="89.4" y1="124.16" x2="24.79" y2="142.08"/>
	<line class="st0" x1="95.06" y1="133.75" x2="48.06" y2="181.58"/>
	<line class="st0" x1="104.93" y1="127.61" x2="66.53" y2="195.5"/>
	<line class="st0" x1="104.74" y1="139.28" x2="87.97" y2="204.16"/>
	<line class="st0" x1="110.14" y1="119.15" x2="110.91" y2="206.98"/>
	<line class="st0" x1="115.52" y1="127.54" x2="155.1" y2="194.72"/>
	<line class="st0" x1="115.89" y1="139.14" x2="133.81" y2="203.76"/>
	<line class="st0" x1="125.48" y1="133.49" x2="173.32" y2="180.49"/>
	<line class="st0" x1="119.37" y1="123.63" x2="187.23" y2="162.02"/>
	<line class="st0" x1="130.97" y1="123.79" x2="195.89" y2="140.58"/>
	<line class="st0" x1="110.88" y1="118.41" x2="198.71" y2="117.63"/>
	<line class="st0" x1="119.27" y1="113.02" x2="186.45" y2="73.45"/>
	<line class="st0" x1="130.88" y1="112.65" x2="195.49" y2="94.73"/>
	<line class="st0" x1="125.22" y1="103.06" x2="172.22" y2="55.23"/>
	<line class="st0" x1="115.35" y1="109.19" x2="153.75" y2="41.31"/>
	<line class="st0" x1="104.76" y1="109.27" x2="65.18" y2="42.09"/>
	<line class="st0" x1="94.79" y1="103.33" x2="46.96" y2="56.33"/>
	<line class="st0" x1="100.91" y1="113.19" x2="33.05" y2="74.79"/>
	<line class="st0" x1="89.31" y1="113.02" x2="24.39" y2="96.23"/>
	<path class="st0" d="M93.44,58.21c3.61-1,7.36-1.68,11.2-2.02"/>
	<path class="st0" d="M104.64,44.33c-4.94,0.36-9.74,1.2-14.36,2.48"/>
	<path class="st0" d="M125.78,57.91c26.93,6.94,46.83,31.4,46.83,60.5c0,34.5-27.97,62.48-62.48,62.48
		c-34.5,0-62.47-27.97-62.47-62.48c0-28.72,19.38-52.89,45.78-60.2"/>
	<path class="st0" d="M90.28,46.81c-31.39,8.69-54.44,37.44-54.44,71.6c0,41.04,33.27,74.3,74.3,74.3c41.04,0,74.3-33.27,74.3-74.3
		c0-34.61-23.67-63.7-55.7-71.96c-3.79-0.98-7.7-1.65-11.7-2.02"/>
	<path class="st0" d="M117.04,56.32c2.98,0.33,5.9,0.86,8.74,1.59"/>
	<path class="st0" d="M117.04,56.32"/>
	<path class="st0" d="M125.78,57.91"/>
	<path class="st0" d="M117.04,75.48c1.35,0.22,2.68,0.49,3.98,0.82"/>
	<path class="st0" d="M93.44,58.21c-26.39,7.31-45.78,31.48-45.78,60.2c0,34.5,27.97,62.48,62.47,62.48
		c34.5,0,62.48-27.97,62.48-62.48c0-29.1-19.9-53.56-46.83-60.5"/>
	<path class="st0" d="M121.02,76.31c18.74,4.83,32.59,21.85,32.59,42.1c0,24.01-19.46,43.47-43.47,43.47
		c-24.01,0-43.47-19.46-43.47-43.47c0-19.98,13.49-36.81,31.85-41.89"/>
	<path class="st0" d="M98.52,76.52c1.99-0.55,4.03-0.96,6.12-1.22"/>
	<path class="st0" d="M104.64,56.19c-3.84,0.34-7.59,1.02-11.2,2.02"/>
	<path class="st0" d="M117.04,98.04c8.49,2.88,14.61,10.9,14.61,20.36c0,11.88-9.63,21.51-21.51,21.51
		c-11.88,0-21.51-9.63-21.51-21.51c0-9.98,6.8-18.35,16.02-20.78"/>
	<path class="st0" d="M98.52,76.52c-18.37,5.08-31.85,21.91-31.85,41.89c0,24.01,19.46,43.47,43.47,43.47
		c24.01,0,43.47-19.46,43.47-43.47c0-20.25-13.85-37.27-32.59-42.1"/>
	<path class="st0" d="M104.64,75.29c-2.09,0.26-4.13,0.67-6.12,1.22"/>
	<path class="st0" d="M121.02,76.31c-1.3-0.34-2.63-0.61-3.98-0.82"/>
	<path class="st0" d="M104.64,97.63c-9.21,2.43-16.02,10.8-16.02,20.78c0,11.88,9.63,21.51,21.51,21.51
		c11.88,0,21.51-9.63,21.51-21.51c0-9.47-6.12-17.49-14.61-20.36"/>
	<polyline class="st0" points="110,101.96 110.14,117.67 110,101.96 	"/>
	<line class="st0" x1="109.39" y1="29.84" x2="109.48" y2="39.71"/>
	<line class="st0" x1="132.31" y1="32.64" x2="117.04" y2="91.71"/>
	<line class="st0" x1="103.6" y1="94.83" x2="86.45" y2="33.04"/>
</g>
<g id="Layer_1">
	<line class="st1" x1="110.02" y1="31.4" x2="110.14" y2="42.32"/>
	<text transform="matrix(1 0 0 1 78.3419 16.9898)" class="st2 st3 st4">F</text>
	<text transform="matrix(1 0 0 1 85.7719 16.9898)" class="st2 st3 st4">i</text>
	<text transform="matrix(1 0 0 1 89.1419 16.9898)" class="st2 st3 st4">gu</text>
	<text transform="matrix(1 0 0 1 104.0119 16.9898)" class="st2 st3 st4">r</text>
	<text transform="matrix(1 0 0 1 108.7019 16.9898)" class="st2 st3 st4 st5">e</text>
	<text transform="matrix(1 0 0 1 118.7619 16.9898)" class="st2 st3 st4">E</text>
	<text transform="matrix(1 0 0 1 126.8119 16.9898)" class="st2 st3 st4">9</text>
	<text transform="matrix(1 0 0 1 133.5319 16.9898)" class="st2 st3 st4">-</text>
	<text transform="matrix(1 0 0 1 137.6019 16.9898)" class="st2 st3 st4">1</text>
	<text transform="matrix(1 0 0 1 57.1027 40.15)" class="st2 st3 st6">120</text>
	<text transform="matrix(1 0 0 1 153.3419 40.9898)" class="st2 st3 st6">60</text>
	<text transform="matrix(1 0 0 1 189.3419 76.5098)" class="st2 st3 st6">30</text>
	<text transform="matrix(1 0 0 1 202.1827 121.0298)" class="st2 st3 st6">0</text>
	<text transform="matrix(1 0 0 1 189.3419 166.3897)" class="st2 st3 st6">-30</text>
	<text transform="matrix(1 0 0 1 152.8624 200.9498)" class="st2 st3 st6">-60</text>
	<text transform="matrix(1 0 0 1 56.5021 202.0298)" class="st2 st3 st6">-120</text>
	<text transform="matrix(1 0 0 1 19.7823 168.7901)" class="st2 st3 st6">-150</text>
	<text transform="matrix(1 0 0 1 20.7423 74.71)" class="st2 st3 st6">150</text>
	<text transform="matrix(1 0 0 1 8.382 120.7901)" class="st2 st3 st6">180</text>
	<text transform="matrix(1 0 0 1 187.0568 49.5098)" class="st7"><tspan x="0" y="0" class="st2 st8 st9">Free-Space</tspan><tspan x="9.71" y="11.65" class="st2 st8 st9">Pattern</tspan></text>
	<text transform="matrix(1 0 0 1 107.0078 47.8527)" class="st2 st3 st10">-3</text>
	<text transform="matrix(1 0 0 1 107.0078 59.0129)" class="st2 st3 st10">-6</text>
	<text transform="matrix(1 0 0 1 104.6413 78.093)" class="st2 st3 st10">-12</text>
	<text transform="matrix(1 0 0 1 104.6413 99.093)" class="st2 st3 st10">-24</text>
</g>
<g id="Layer_2">
	<path class="st11" d="M197.56,118.41c0.33,12.96-8.83,23.45-16.78,27.92c-12.53,7.04-19.61,8.61-30.17,7.3
		c-10.57-1.31-22.77-9.15-24.95-10.89c-2.18-1.74-3.27-4.58-4.79,0.87c-0.81,2.89-0.59,3.74-3.38,8.17
		c-1.42,2.27-3.7,3.16-5.56,3.05c-1.85-0.11-4.14-1.2-5.66-2.51c-1.53-1.31-3.38-3.05-5.12-6.64c-2.19-4.52-0.22-10.61-2.05-10.61
		c-2.31,0-3.06,1.44-7.74,1.58c-2.61,0.08-5.44-0.88-8.52-3.23c-1.99-1.52-3.15-4.55-3.5-7.68c-0.24-2.08-0.51-5.5-0.51-7.34
		c0-1.87,0.28-5.36,0.51-7.45c0.35-3.14,1.51-6.16,3.5-7.68c3.08-2.36,5.91-3.31,8.52-3.23c4.68,0.14,5.43,1.57,7.74,1.58
		c1.83,0-0.14-6.09,2.05-10.61c1.74-3.59,3.59-5.34,5.12-6.64c1.53-1.31,3.81-2.4,5.66-2.51c1.85-0.11,4.13,0.78,5.56,3.05
		c2.78,4.43,2.57,5.28,3.38,8.17c1.53,5.45,2.61,2.61,4.79,0.87c2.18-1.74,14.38-9.59,24.95-10.89c10.57-1.31,17.65,0.26,30.17,7.3
		c7.95,4.47,17.11,15.06,16.78,28.02L197.56,118.41z"/>
</g>
</svg>
