<?xml version="1.0" encoding="utf-8"?>
<!-- Generator: Adobe Illustrator 24.0.0, SVG Export Plug-In . SVG Version: 6.00 Build 0)  -->
<svg version="1.1" xmlns="http://www.w3.org/2000/svg" xmlns:xlink="http://www.w3.org/1999/xlink" x="0px" y="0px"
	 viewBox="0 0 277 168" style="enable-background:new 0 0 277 168;" xml:space="preserve">
<style type="text/css">
	.st0{fill:none;stroke:#000000;stroke-width:0.5;stroke-linecap:round;stroke-linejoin:round;stroke-miterlimit:10;}
	.st1{font-family:'Arial-BoldMT';}
	.st2{font-size:15.51px;}
	.st3{font-size:11.41px;}
	.st4{font-family:'ArialMT';}
	.st5{font-size:9.3px;}
	.st6{fill:none;stroke:#000000;stroke-width:2.5;stroke-linecap:round;stroke-linejoin:round;stroke-miterlimit:10;}
</style>
<g id="Layer_2">
	<path class="st0" d="M234.51,150.08c0-59.52-47.23-107.77-105.48-107.77S23.55,90.56,23.55,150.08"/>
	<line class="st0" x1="23.55" y1="150.08" x2="234.51" y2="150.08"/>
	<line class="st0" x1="129.03" y1="42.31" x2="129.03" y2="150.08"/>
	<line class="st0" x1="37.18" y1="97.05" x2="117.68" y2="143.53"/>
	<line class="st0" x1="101.17" y1="46.11" x2="123.57" y2="129.71"/>
	<line class="st0" x1="75.43" y1="57.24" x2="122.41" y2="138.61"/>
	<line class="st0" x1="53.65" y1="74.7" x2="114.26" y2="135.31"/>
	<line class="st0" x1="26.98" y1="122.73" x2="109.03" y2="144.72"/>
	<line class="st0" x1="220.88" y1="97.05" x2="140.38" y2="143.53"/>
	<line class="st0" x1="156.89" y1="46.11" x2="134.49" y2="129.71"/>
	<line class="st0" x1="182.63" y1="57.24" x2="135.65" y2="138.61"/>
	<line class="st0" x1="204.41" y1="74.7" x2="143.8" y2="135.31"/>
	<line class="st0" x1="231.09" y1="122.74" x2="149.03" y2="144.72"/>
	<path class="st0" d="M149.7,150.08c0-11.66-9.25-21.12-20.67-21.12s-20.67,9.46-20.67,21.12"/>
	<path class="st0" d="M167.81,150.08c0-21.88-17.36-39.62-38.78-39.62s-38.78,17.74-38.78,39.62"/>
	<path class="st0" d="M193.11,150.08c0-36.16-28.69-65.47-64.08-65.47s-64.08,29.31-64.08,65.47"/>
	<path class="st0" d="M142.07,150.08c0-7.36-5.84-13.32-13.04-13.32s-13.04,5.96-13.04,13.32"/>
</g>
<g id="Layer_1">
	<text transform="matrix(1 0 0 1 83.9529 21.1899)" class="st1 st2">Figure E9-2</text>
	<text transform="matrix(1 0 0 1 175.113 40.8701)" class="st1 st3">Over Real Ground</text>
	<text transform="matrix(1 0 0 1 20.0698 97.8805)" class="st4 st5">150</text>
	<text transform="matrix(1 0 0 1 6.2757 153.7289)" class="st4 st5">180</text>
	<text transform="matrix(1 0 0 1 62.3698 54.7999)" class="st4 st5">120</text>
	<text transform="matrix(1 0 0 1 124.4099 40.5796)" class="st4 st5">90</text>
	<text transform="matrix(1 0 0 1 184.9099 57.74)" class="st4 st5">60</text>
	<text transform="matrix(1 0 0 1 222.1498 98.1795)" class="st4 st5">30</text>
	<text transform="matrix(0.75 0 0 1 145.5901 158.9188)" class="st4 st5">-30</text>
	<text transform="matrix(0.75 0 0 1 134.6301 158.9184)" class="st4 st5">-40</text>
	<text transform="matrix(0.75 0 0 1 163.5904 158.919)" class="st4 st5">-20</text>
	<text transform="matrix(0.75 0 0 1 188.5903 158.9189)" class="st4 st5">-10</text>
	<text transform="matrix(1 0 0 1 238.113 154.8696)" class="st4 st5">0</text>
</g>
<g id="Layer_3">
	<path class="st6" d="M130.95,150.2c14.87-0.69,42.78-1.02,62.1-2.88c16.37-1.58,26.07-4.5,28.14-5.4s11.24-3.72,11.52-6.3
		c0.36-3.31-10.56-4.29-16.08-4.26c-9.92,0.05-16.29,1.54-21.48,2.52c-7.56,1.43-23.52,4.56-23.88,3.12
		c-0.6-2.4,15-7.84,25.08-12.48c9.76-4.49,20.24-12.24,19.81-16.08s-14.39-0.49-22.69,3.06s-10.61,4.93-14.28,6.78
		s-12.05,7.08-14.04,7.2c-3.12,0.19,2.1-5.52,7.68-10.8s12.56-12.05,14.36-17.64c1.51-4.7,2.23-10.65-9.2-5.16
		c-6.99,3.36-17.57,15.83-21.63,20.27c-7.05,7.69-12.69,10.33-10.23,2.95c1.28-3.83,2.83-11.33,1.44-13.62
		c-1.39-2.29-3.9-4.79-10.74,1.02c-6.84,5.81-11.4,16.5-11.94,23.94c-0.73,10.11,0.16,12.15-1.26,13.08
		c-1.42,0.93-8.04-6.36-9.3-4.95c-1.37,1.54,5.44,6.71,4.26,8.43c-0.58,0.84-7.67-3.93-8.58-2.05c-0.9,1.87,8.66,4.64,8.22,5.83
		c-0.6,1.62-10.09-1.73-9.84,0.3C108.63,149,123.15,150.56,130.95,150.2z"/>
</g>
</svg>
