<?xml version="1.0" encoding="utf-8"?>
<!-- Generator: Adobe Illustrator 28.1.0, SVG Export Plug-In . SVG Version: 6.00 Build 0)  -->
<svg version="1.1" id="Layer_1" xmlns="http://www.w3.org/2000/svg" xmlns:xlink="http://www.w3.org/1999/xlink" x="0px" y="0px"
	 viewBox="0 0 199 218" style="enable-background:new 0 0 199 218;" xml:space="preserve">
<style type="text/css">
	.st0{font-family:'Arial-BoldMT';}
	.st1{font-size:12px;}
	.st2{fill:none;stroke:#010101;stroke-width:0.12;stroke-linecap:round;stroke-linejoin:round;stroke-miterlimit:10;}
	.st3{fill:none;stroke:#010101;stroke-width:0.25;stroke-linecap:round;stroke-linejoin:round;stroke-miterlimit:10;}
	.st4{font-family:'MyriadPro-Semibold';}
	.st5{font-size:11.8432px;}
	.st6{font-size:5.2271px;}
	.st7{font-size:5.2277px;}
	.st8{font-size:5.227px;}
	.st9{font-size:5.2276px;}
</style>
<text transform="matrix(1 0 0 1 74.4396 16.9897)" class="st0 st1">Figure E9-3</text>
<g>
	<polyline class="st2" points="181.6,118.8 181.6,119.1 181.5,119.1 	"/>
	<path class="st2" d="M181.6,119.1"/>
	<polyline class="st2" points="92.2,119.1 92.2,119.5 92.6,119.7 93,120 93.3,120.1 93.7,120 94,119.7 94.3,119.5 94.3,119.1 
		94.3,118.6 94,118.3 93.7,118 93.3,118 93,118 92.6,118.3 92.2,118.6 92.2,119.1 	"/>
	<g>
		<polyline class="st3" points="178.4,119.1 178.5,119.5 178.6,120 179.1,120.3 179.5,120.6 179.9,120.8 180.5,120.7 181,120.4 
			181.4,120.2 181.6,119.7 181.6,119.2 181.6,118.8 181.6,118.3 181.4,117.9 181,117.6 180.5,117.4 179.9,117.4 179.5,117.4 
			179.1,117.8 178.6,118 178.5,118.5 178.4,119.1 		"/>
		<polyline class="st3" points="173.4,119.1 173.6,119.8 173.8,120.6 174.1,121.3 174.5,121.9 175,122.4 175.7,122.7 176.5,123 
			177.2,123.1 178,123.1 178.7,123 179.5,122.7 180.1,122.4 180.7,121.9 181.1,121.3 181.4,120.6 181.6,119.8 181.6,119.1 
			181.6,118.3 181.4,117.4 181.1,116.8 180.7,116.1 180.1,115.8 179.5,115.3 178.7,115.1 178,115 177.2,115 176.5,115.1 
			175.7,115.3 175,115.8 174.5,116.1 174.1,116.8 173.8,117.4 173.6,118.3 173.6,119.1 		"/>
		<polyline class="st3" points="152.3,119.1 152.4,120.4 152.6,122 153,123.2 153.5,124.7 154.1,126 154.9,127.2 155.8,128.4 
			156.7,129.5 157.8,130.3 158.9,131.2 160.1,131.9 161.4,132.5 162.9,133.1 164.3,133.4 165.6,133.6 167.1,133.7 168.5,133.6 
			170,133.4 171.4,133.1 172.7,132.5 173.9,131.9 175.1,131.2 176.3,130.3 177.4,129.5 178.4,128.4 179.3,127.2 180.1,126 
			180.7,124.7 181.1,123.2 181.4,122 181.6,120.4 181.6,119.1 181.6,117.6 181.4,116.1 181.1,114.9 180.7,113.5 180.1,112.1 
			179.3,110.9 178.4,109.7 177.4,108.7 176.3,107.7 175.1,106.8 173.9,106.1 172.7,105.5 171.4,105 170,104.7 168.5,104.4 
			167.1,104.3 165.6,104.4 164.3,104.7 162.9,105 161.4,105.5 160.1,106.1 158.9,106.8 157.8,107.7 156.7,108.7 155.8,109.7 
			154.9,110.9 154.1,112.1 153.5,113.5 153,114.9 152.6,116.1 152.4,117.6 152.4,119.1 		"/>
		<polyline class="st3" points="180.4,110.5 179.8,108.4 179,106.6 178,104.8 176.9,103 175.9,101.3 174.5,100 173.3,98.4 
			171.8,97.1 170.2,95.8 168.6,94.6 166.8,93.5 165.1,92.6 163.2,91.8 161.4,91.1 159.4,90.5 157.4,90.1 155.5,89.8 153.5,89.6 
			151.4,89.6 149.5,89.8 147.5,90 145.4,90.5 143.6,91.1 141.7,91.7 139.8,92.5 138,93.3 136.2,94.3 134.6,95.4 133,96.7 
			131.6,98.3 130.1,99.6 128.8,101.2 127.7,102.9 126.8,104.6 125.8,106.5 125,108.2 124.2,110.1 123.8,112.1 123.4,114.1 123,116 
			122.8,117.9 122.8,120.1 123,122.1 123.4,124.1 123.8,126 124.2,127.9 125,129.9 125.8,131.6 126.8,133.6 127.7,135.2 
			128.8,136.9 130.1,138.4 131.6,139.8 133,141.3 134.6,142.6 136.2,143.7 138,144.7 139.8,145.6 141.7,146.4 143.6,147 
			145.4,147.6 147.5,148 149.5,148.2 151.4,148.5 153.5,148.5 155.5,148.2 157.4,147.9 159.4,147.5 161.4,146.9 163.2,146.2 
			165.1,145.5 166.8,144.5 168.6,143.4 170.2,142.3 171.8,141 173.3,139.6 174.5,138.3 175.9,136.7 176.9,135 178,133.2 179,131.4 
			179.8,129.6 180.5,127.7 		"/>
		<polyline class="st3" points="181.6,119.1 181.6,116.1 181.5,113.3 181.1,110.5 180.7,107.7 180.1,104.8 179.3,102 178.4,99.4 
			177.3,96.7 176.2,94 174.9,91.4 173.6,88.9 171.8,86.2 		"/>
		<polyline class="st3" points="173.4,119.6 170,119.8 166.5,120.4 163,121.2 159.6,122 156.2,122.9 152.8,123.8 149.5,125.1 
			146.3,126.6 143.1,128 140,129.6 136.8,131.3 133.9,133.2 130.9,135.2 128.1,137.3 125.3,139.5 122.6,141.7 120,144.1 
			117.5,146.7 115.1,149.2 112.9,152.1 110.8,154.9 108.7,157.6 106.7,160.5 105,163.6 103.3,166.8 101.7,169.9 100.2,173.1 
			98.9,176.4 97.8,179.8 96.8,183.1 95.8,186.5 95.1,190 94.4,193.4 93.9,197 93.6,200.5 93.3,203.9 93.3,207.3 		"/>
		<polyline class="st3" points="181.6,119.1 181.3,119.1 180.9,119.2 180.5,119.7 180.2,120.1 180.1,120.6 180.2,121 180.4,121.5 
			180.7,121.9 181,122.2 181.5,122.5 		"/>
		<polyline class="st3" points="181.6,119.1 181,119.1 180.2,119.4 179.5,119.7 178.9,120.2 178.3,120.8 177.8,121.5 177.5,122.4 
			177.4,123 177.4,123.8 177.5,124.7 177.9,125.5 178.3,126.1 178.9,126.7 179.5,127.3 180.2,127.7 181,127.9 		"/>
		<polyline class="st3" points="178.4,119.5 176.8,119.7 175.3,120.4 173.8,121 172.5,121.8 171,122.7 169.8,123.7 168.8,124.9 
			167.6,126.1 166.7,127.4 166,128.9 165.3,130.3 164.8,131.8 164.4,133.3 164.2,135 164.2,136.6 164.2,138.1 164.3,139.7 
			164.7,141.3 165.3,142.9 165.9,144.5 166.5,145.7 167.4,147 168.4,148.4 169.6,149.6 170.8,150.6 172.1,151.6 173.4,152.4 
			175.4,153.3 		"/>
		<polyline class="st3" points="173.4,119.8 171,120.3 168.8,121 166.2,121.9 164.1,122.8 161.8,123.8 159.6,125 157.4,126.3 
			155.5,127.8 153.5,129.3 151.6,130.9 149.9,132.6 148.1,134.5 146.6,136.4 145.2,138.4 143.7,140.5 142.6,142.7 141.6,145 
			140.5,147.2 139.8,149.6 138.9,152 138.4,154.4 138,156.9 137.7,159.4 137.6,161.8 137.6,164.4 137.7,166.8 138,169.3 
			138.3,171.7 138.9,174.2 139.6,176.5 140.5,178.9 141.3,181.2 142.5,183.4 143.6,185.7 144.9,187.7 146.6,190.2 		"/>
		<polyline class="st3" points="173.4,119.4 168.5,119.5 163.5,120.1 158.5,120.7 153.5,121.4 148.5,122.2 143.6,123.2 138.8,124.3 
			133.9,125.7 129.1,127.1 124.4,128.7 119.7,130.3 114.9,132.2 110.3,134.2 105.7,136.3 101.3,138.4 96.9,140.9 92.4,143.3 
			88.1,145.8 83.8,148.6 79.7,151.5 75.6,154.4 71.8,157.5 67.9,160.6 64,164 60.3,167.4 56.7,170.9 53.1,174.5 49.9,178.1 
			46.5,181.9 43.4,185.8 40.6,189.4 		"/>
		<polyline class="st3" points="173.4,119.1 163.7,119.5 154,120 144.2,120.7 134.5,121.6 124.7,122.8 115,124.1 105.5,125.7 
			95.8,127.5 86.1,129.5 76.7,131.8 67.2,134.2 57.8,136.8 48.4,139.6 39.2,142.7 30,145.8 20.8,149.4 12.2,152.9 		"/>
		<line class="st3" x1="181.6" y1="119.1" x2="5.6" y2="119"/>
		<polyline class="st3" points="93.3,30.7 93.4,34.2 93.6,37.8 94,41.4 94.6,44.9 95.2,48.4 96,51.9 96.9,55.2 98,58.7 99.2,62.2 
			100.4,65.5 102,68.7 103.5,71.8 105.3,75 107.2,78 109,81 111.2,83.9 113.4,86.6 115.7,89.4 118.2,92.2 120.6,94.5 123.3,97 
			126,99.3 128.8,101.3 131.7,103.5 134.7,105.4 137.7,107.3 140.8,109 144.1,110.6 147.3,112.1 		"/>
		<polyline class="st3" points="146.6,48 144.9,50.4 143.6,52.5 142.5,54.6 141.4,56.9 140.5,59.2 139.6,61.6 138.9,63.8 
			138.3,66.3 138,68.8 137.7,71.2 137.6,73.8 137.6,76.3 137.7,78.7 138,81.1 138.4,83.5 138.9,85.9 139.6,88.4 140.5,90.8 
			141.4,93 142.5,95.3 143.7,97.5 145.1,99.6 146.5,101.4 148.1,103.5 149.7,105.4 151.4,107.1 153.4,108.7 155.3,110.2 
			157.3,111.7 159.4,113 161.5,114.2 163.8,115.2 166.2,116.1 168.4,117 		"/>
		<polyline class="st3" points="175.5,84.9 173.4,85.8 172.2,86.5 170.8,87.6 169.6,88.6 168.5,89.8 167.6,91 166.6,92.4 166,93.6 
			165.3,95.1 164.7,96.6 164.3,98.2 164.2,99.7 164.2,101.3 164.2,103 164.3,104.6 164.7,106.1 165.3,107.7 165.9,109 166.5,110.5 
			167.4,111.8 168.4,113 		"/>
		<polyline class="st3" points="181.6,115.7 181,115.8 180.7,116.1 180.4,116.5 180.2,117 180.1,117.4 180.2,118 180.5,118.4 
			180.9,118.8 181.3,119 181.6,119.1 		"/>
		<polyline class="st3" points="181,110.3 180.2,110.5 179.5,110.8 178.9,111.3 178.3,112 177.9,112.6 177.5,113.3 177.4,114.2 
			177.4,115.1 177.5,115.8 177.8,116.6 178.3,117.2 178.9,117.9 179.5,118.4 180.2,118.8 181,119 181.6,119.1 		"/>
		<polyline class="st3" points="181.6,119.1 181.6,115.5 181.4,112.1 181.1,108.7 180.5,105.2 179.7,101.8 178.9,98.5 177.8,95.2 
			176.6,91.9 175.1,88.7 173.5,85 		"/>
		<polyline class="st3" points="40.6,48.7 43.4,52.2 46.5,56 49.8,59.8 53,63.4 56.5,67.1 60.2,70.5 63.8,73.9 67.6,77.1 71.4,80.4 
			75.4,83.4 79.4,86.3 83.5,89.2 87.5,91.8 91.8,94.3 96.2,96.9 100.5,99.3 105,101.3 109.6,103.6 114.1,105.5 118.7,107.4 
			123.3,109 128.1,110.6 132.9,112.1 137.6,113.5 142.5,114.5 147.3,115.5 		"/>
		<polyline class="st3" points="12.2,85.3 21,88.8 30.3,92.4 39.7,95.7 49,98.7 58.5,101.6 68.1,104.2 77.7,106.7 87.5,108.8 
			97.3,110.9 106.9,112.7 116.8,114.3 		"/>
		<polyline class="st3" points="63.8,119.1 64,122 64.3,124.7 64.6,127.5 65,130.3 65.6,133.2 66.5,136 67.3,138.6 68.3,141.3 
			69.5,143.9 70.8,146.4 72.1,149 73.7,151.4 75.4,153.7 77.1,155.9 78.9,158.2 80.8,160.3 83,162.2 85,164.1 87.2,165.8 
			89.6,167.6 91.9,169.1 94.4,170.5 96.9,171.9 99.6,173.1 102.1,174.1 105,175.2 107.6,175.8 110.4,176.5 113.2,177.1 116.1,177.5 
			118.8,177.7 121.6,178 124.5,178 127.5,177.7 130.3,177.4 133,177 135.9,176.4 138.6,175.7 141.4,175.1 144.1,174 146.6,172.9 
			149.3,171.6 151.7,170.4 154.2,168.8 156.6,167.4 158.8,165.7 161.1,163.8 163.3,161.8 165.4,160 167.2,157.9 169,155.6 		"/>
		<polyline class="st3" points="34.5,119.1 34.5,122.2 34.7,125.5 35.1,128.6 35.6,131.8 36.2,134.9 37,138 37.9,141.1 38.8,144.1 
			40,147 41.3,150 42.7,152.9 44.2,155.7 45.9,158.5 47.7,161.1 49.5,163.6 51.6,166.3 53.6,168.6 55.9,171 58.2,173.3 60.5,175.3 
			63.1,177.2 65.6,179.2 68.3,181 71.1,182.6 73.8,184.1 76.7,185.7 79.6,187 82.6,188.2 85.6,189.1 88.7,190 91.8,190.7 95,191.4 
			98.1,191.9 101.4,192.3 104.5,192.5 107.6,192.6 110.9,192.6 114.1,192.4 117.3,192 120.4,191.6 123.5,191 126.8,190.3 
			129.7,189.4 132.8,188.3 137.3,186.7 		"/>
		<polyline class="st3" points="5.6,119.1 5.7,122.6 5.8,126 6.3,129.6 6.8,133 7.4,136.4 8,139.8 8.9,143.2 9.9,146.4 11,149.8 
			12.3,153.1 13.9,156.2 15.4,159.5 17,162.4 18.8,165.4 20.8,168.3 22.7,171.2 24.7,174.1 27,176.8 29.4,179.4 31.7,181.9 
			34.4,184.2 37,186.5 39.7,188.8 42.5,190.7 45.4,192.9 48.3,194.7 51.4,196.5 54.3,198.2 57.6,199.5 60.7,200.9 64.1,202.1 
			67.4,203.2 70.7,204.4 74.1,205.1 77.4,205.9 81,206.5 84.4,206.8 87.9,207.2 91.3,207.3 94.9,207.3 98.3,207.2 101.9,207.1 
			105.3,206.7 108.7,206.1 112.2,205.5 115.7,204.8 119.1,203.8 122.3,202.7 125.7,201.5 128.8,200.2 132.1,198.8 135.3,197.3 
			138.2,195.6 141.2,193.7 144.1,191.8 147,189.9 149.9,187.7 152.4,185.3 155,183.1 157.6,180.6 159.9,178.1 162.1,175.4 
			164.3,172.8 166.4,169.9 168.3,167 170.1,164 171.9,160.9 173.4,157.9 174.9,154.6 176.2,151.5 177.5,148.1 178.6,144.9 
			179.6,141.5 180.4,138 181.1,134.8 181.5,131.2 182,127.9 182.2,124.3 182.5,120.8 182.5,117.3 182.2,113.8 182,110.3 
			181.5,106.8 181.1,103.4 180.4,100.1 179.6,96.6 178.6,93.3 177.5,89.9 176.2,86.6 174.9,83.5 173.4,80.1 171.9,77.1 170.1,74.1 
			168.3,71.1 166.4,68.3 164.3,65.5 162.1,62.7 159.9,60 157.6,57.5 155,55 152.4,52.7 149.9,50.4 147,48.3 144.1,46.3 141.2,44.3 
			138.2,42.6 135.3,40.8 132.1,39.2 128.8,37.8 125.7,36.5 122.3,35.3 119.1,34.3 115.7,33.3 112.2,32.5 108.7,31.9 105.3,31.4 
			101.9,31 98.3,30.8 94.9,30.7 91.3,30.7 87.9,30.9 84.4,31.2 81,31.8 77.4,32.3 74.1,32.9 70.7,33.8 67.4,34.8 64.1,35.9 
			60.7,37.2 57.6,38.6 54.3,40 51.4,41.6 48.3,43.4 45.4,45.2 42.5,47.3 39.7,49.3 37,51.5 34.4,53.9 31.7,56.2 29.4,58.7 27,61.4 
			24.7,63.9 22.7,66.8 20.8,69.7 18.8,72.6 17,75.6 15.4,78.7 13.9,81.8 12.3,85 11,88.2 9.9,91.6 8.9,94.9 8,98.3 7.4,101.7 
			6.8,105.2 6.3,108.5 5.8,112.1 5.7,115.5 5.6,119.1 		"/>
		<polyline class="st3" points="176.2,97.7 174.9,95.4 173.4,93.4 172,91.3 170.2,89.3 168.4,87.5 		"/>
		<polyline class="st3" points="171.7,152 173.6,149.2 174.8,146.7 176.1,144.1 177.3,141.5 178.4,138.7 179.3,136.1 180.1,133.3 
			180.7,130.4 181.1,127.7 181.5,124.8 181.6,122 181.6,119.1 		"/>
		<polyline class="st3" points="173.4,153.1 175.1,149.6 176.6,146.2 177.8,142.9 178.9,139.7 179.7,136.3 180.5,133 181.1,129.6 
			181.4,126 181.6,122.6 181.6,119.1 		"/>
		<polyline class="st3" points="152.5,116.5 157.8,117.4 163.1,118 168.4,118.5 		"/>
		<polyline class="st3" points="152.3,118 160.3,118.6 168.4,118.9 		"/>
		<polyline class="st3" points="122.8,115.2 135.2,116.6 147.3,117.7 		"/>
		<polyline class="st3" points="152.4,114.2 156.4,115.3 160.3,116.4 164.4,117.3 168.4,118 		"/>
		<polyline class="st3" points="142.4,184.3 145.5,182.5 148.4,180.7 151.1,178.7 153.8,176.8 156.4,174.6 158.8,172.4 161.2,170 
			163.5,167.6 165.6,165.1 167.6,162.3 169.5,159.7 171.3,156.9 		"/>
		<polyline class="st3" points="168.5,150.4 170.4,148.5 172.1,146.4 173.8,144.5 175.1,142.2 176.3,139.9 		"/>
		<polyline class="st3" points="170.7,80.5 169,77.6 167.1,75 165.1,72.3 162.9,69.8 160.6,67.4 158.3,65 155.8,62.8 153.1,60.9 
			150.6,58.8 147.7,56.9 144.8,55.2 142,53.7 		"/>
		<polyline class="st3" points="168.3,81.7 166.4,79.5 164.4,77.4 162.4,75.4 160.1,73.5 157.9,71.7 155.5,70 153,68.6 150.6,67.1 
			148.1,65.8 145.3,64.6 142.6,63.5 139.9,62.7 137.1,62 134.3,61.4 131.3,60.9 128.5,60.5 125.7,60.3 122.8,60.2 120,60.3 
			117,60.5 114.1,60.9 111.4,61.4 108.5,62 105.7,62.7 103.1,63.7 100.2,64.6 97.6,65.8 95.1,67.1 92.6,68.6 90.2,70.2 87.8,71.7 
			85.5,73.5 83.3,75.4 81.2,77.5 79.2,79.5 77.3,81.7 75.6,84 73.9,86.3 72.4,88.8 70.9,91.3 69.6,93.9 68.4,96.6 67.4,99.3 
			66.5,101.9 65.8,104.8 65,107.7 64.6,110.5 64.3,113.3 64,116.1 64,119.1 		"/>
		<polyline class="st3" points="164.4,84.1 162.4,82.5 160.2,81.2 158.2,80 155.9,78.9 153.5,77.9 151.2,77.1 148.8,76.4 
			146.4,75.8 143.9,75.4 141.4,75.1 138.9,75 136.5,75 134,75.1 131.5,75.3 128.9,75.8 126.6,76.3 124.2,77 121.8,77.7 119.7,78.7 
			117.3,79.8 115.1,81 113,82.3 111,83.7 109,85.2 107,87 105.3,88.8 103.8,90.6 102.2,92.6 100.7,94.6 99.3,96.7 98.3,98.9 
			97.2,101.1 96.2,103.5 95.4,105.9 94.6,108.2 94.2,110.6 93.7,113.1 93.4,115.5 93.3,117.9 93.3,120.6 93.4,123 93.8,125.5 
			94.3,127.9 94.9,130.3 95.5,132.8 96.4,135.1 97.3,137.5 98.4,139.6 99.6,141.7 101,143.9 102.5,145.8 104.1,147.8 105.8,149.7 
			107.5,151.5 109.3,153.1 111.4,154.6 113.4,156.1 115.6,157.4 117.7,158.6 120,159.5 122.3,160.5 124.7,161.2 127.1,162 
			129.4,162.4 131.9,162.8 134.6,163 136.9,163.2 139.5,163.2 142,162.9 144.5,162.7 146.9,162.2 149.3,161.5 151.7,160.8 
			154.1,159.9 156.4,158.9 158.5,157.9 160.7,156.5 162.9,155.2 164.8,153.7 		"/>
		<polyline class="st3" points="136.2,51.1 133.3,49.8 130.3,48.9 127.2,47.9 124.1,47.3 120.9,46.6 117.7,46.1 114.5,45.7 
			111.4,45.6 108.1,45.5 105,45.6 101.7,45.7 98.5,46.1 95.4,46.6 92.1,47.3 89.1,47.9 86,48.9 83.1,49.8 80,51 77,52.3 74.2,53.8 
			71.3,55.2 68.5,56.9 65.9,58.8 63.2,60.8 60.7,62.6 58.4,64.7 56,67 53.7,69.3 51.8,71.7 49.6,74.2 47.7,76.9 46,79.5 44.3,82.3 
			42.8,85.1 41.3,88 40.1,91 38.9,93.9 37.9,96.9 37,100.1 36.2,103.1 35.6,106.2 35.1,109.5 34.7,112.6 34.5,115.8 34.5,119.1 		
			"/>
	</g>
	<text transform="matrix(1 0 0 1 184.6465 122.4339)" class="st4 st5">∞</text>
	<text transform="matrix(4.489659e-11 -1 1 4.489659e-11 91.6689 205.9756)" class="st0 st6">1.0</text>
	<text transform="matrix(4.489659e-11 -1 1 4.489659e-11 91.6689 39.3467)" class="st0 st6">1.0</text>
	<text transform="matrix(4.489659e-11 -1 1 4.489659e-11 92.1953 118.1699)" class="st0 st6">1.0</text>
	<text transform="matrix(4.489659e-11 -1 1 4.489659e-11 121.7764 118.1699)" class="st0 st6">2.0</text>
	<text transform="matrix(0.5631 -0.8264 0.8264 0.5631 140.176 54.4553)" class="st0 st6">2.0</text>
	<text transform="matrix(-0.5291 -0.8486 0.8486 -0.5291 145.1409 189.8232)" class="st0 st7">2.0</text>
	<text transform="matrix(4.489659e-11 -1 1 4.489659e-11 62.9873 118.1709)" class="st0 st6">0.5</text>
	<text transform="matrix(0.6784 -0.7347 0.7347 0.6784 40.2776 187.574)" class="st0 st6">0.5</text>
	<text transform="matrix(0.665 0.7469 -0.7469 0.665 37.2603 52.8694)" class="st0 st7">0.5</text>
	<text transform="matrix(4.489659e-11 -1 1 4.489659e-11 33.498 118.1709)" class="st0 st6">0.2</text>
	<text transform="matrix(4.489659e-11 -1 1 4.489659e-11 10.3721 118.1709)" class="st0 st6">0</text>
	<text transform="matrix(0.943 -0.3328 0.3328 0.943 12.567 150.3998)" class="st0 st6">0.2</text>
	<text transform="matrix(0.9088 0.4172 -0.4172 0.9088 11.625 89.6652)" class="st0 st8">0.2</text>
	<text transform="matrix(4.489659e-11 -1 1 4.489659e-11 151.6953 118.1699)" class="st0 st6">5.0</text>
	<text transform="matrix(0.8636 -0.5042 0.5042 0.8636 167.2275 87.7078)" class="st0 st6">5.0</text>
	<text transform="matrix(-0.8512 -0.5249 0.5249 -0.8512 173.6305 153.7968)" class="st0 st9">5.0</text>
	<text transform="matrix(4.489659e-11 -1 1 4.489659e-11 172.9648 118.1709)" class="st0 st6">20</text>
</g>
</svg>
